<svg xmlns="http://www.w3.org/2000/svg" width="668" height="56" viewBox="0 0 668 56">
  <g fill="none" fill-rule="evenodd">
    <g fill-rule="nonzero" transform="translate(521)">
      <polygon fill="#00A256" points=".118 10.853 118.646 1.102 47.378 1.102" opacity=".4"/>
      <g fill="#1D1D1B" transform="translate(17 1)">
        <polygon points="64.655 1.179 64.154 1.179 65.047 2.397 65.52 2.36"/>
        <polygon points="61.306 1.179 60.805 1.179 61.879 2.646 62.352 2.608"/>
        <polygon points="57.808 1.179 57.304 1.179 58.567 2.907 59.045 2.868"/>
        <polygon points="54.459 1.179 53.954 1.179 55.399 3.154 55.877 3.118"/>
        <polygon points="78.02 1.179 77.519 1.179 77.685 1.405 78.158 1.368"/>
        <polygon points="74.671 1.179 74.17 1.179 74.517 1.654 74.99 1.618"/>
        <polygon points="71.173 1.179 70.669 1.179 71.206 1.915 71.683 1.877"/>
        <polygon points="67.822 1.179 67.318 1.179 68.039 2.163 68.515 2.125"/>
        <polygon points="37.696 1.179 37.195 1.179 39.552 4.397 40.023 4.36"/>
        <polygon points="36.384 4.646 36.855 4.609 34.347 1.179 33.846 1.179"/>
        <polygon points="30.892 1.237 30.454 1.329 33.071 4.907 33.548 4.87"/>
        <polygon points="27.981 1.838 27.545 1.928 29.904 5.154 30.38 5.118"/>
        <polygon points="51.062 1.179 50.561 1.179 52.19 3.407 52.663 3.37"/>
        <polygon points="47.713 1.179 47.212 1.179 49.022 3.654 49.495 3.618"/>
        <polygon points="44.215 1.179 43.711 1.179 45.712 3.915 46.187 3.877"/>
        <polygon points="40.864 1.179 40.36 1.179 42.545 4.163 43.02 4.125"/>
        <polygon points="25.057 2.441 24.621 2.532 26.724 5.404 27.197 5.368"/>
        <polygon points="10.495 5.446 10.062 5.536 10.875 6.647 11.347 6.611"/>
        <polygon points="7.586 6.047 7.151 6.135 7.707 6.896 8.18 6.859"/>
        <polygon points="4.544 6.674 4.109 6.764 4.396 7.157 4.868 7.12"/>
        <polygon points="1.229 7.404 1.7 7.368 1.634 7.274 1.199 7.364"/>
        <polygon points="22.107 3.049 21.675 3.14 23.515 5.657 23.986 5.62"/>
        <polygon points="19.197 3.65 18.764 3.741 20.347 5.904 20.819 5.868"/>
        <polygon points="16.156 4.277 15.721 4.368 17.036 6.165 17.51 6.127"/>
        <polygon points="13.246 4.877 12.811 4.967 13.868 6.413 14.342 6.375"/>
      </g>
      <path fill="#1D1D1B" d="M147 .025L.892 11.926l-.3-2.129L47.956.025H147zM97.578 2.179H48.177L17.863 8.434l79.715-6.255z"/>
    </g>
    <g transform="translate(411)">
      <polygon fill="#93C01F" fill-rule="nonzero" points="28.716 27.644 157.378 1.102 2.012 1.102" opacity=".37"/>
      <g fill="#1D1D1B" fill-rule="nonzero" transform="translate(5 2)">
        <polygon points="110.979 .179 108.934 .179 115.319 5.79 116.975 5.447"/>
        <polygon points="117.218 .179 114.802 .179 120.071 4.809 122.027 4.405"/>
        <polygon points="123.385 .179 120.642 .179 124.802 3.833 127.022 3.375"/>
        <polygon points="129.672 .179 126.356 .179 129.43 2.877 132.113 2.325"/>
        <polygon points="135.763 .179 132.353 .179 134.284 1.877 137.048 1.307"/>
        <polygon points="141.941 .179 138.128 .179 138.963 .913 142.052 .274"/>
        <polygon points="104.657 .179 103.193 .179 110.671 6.749 111.857 6.504"/>
        <polygon points="98.471 .179 97.361 .179 105.947 7.723 106.845 7.538"/>
        <polygon points="92.283 .179 91.471 .179 101.177 8.708 101.832 8.571"/>
        <polygon points="86.369 .179 85.262 .179 96.148 9.745 97.047 9.559"/>
        <polygon points="80.558 .179 79.094 .179 91.151 10.775 92.34 10.53"/>
        <polygon points="74.772 .179 72.73 .179 86 11.838 87.654 11.497"/>
        <polygon points="63.036 .179 60.296 .179 75.929 13.915 78.148 13.458"/>
        <polygon points="69.018 .179 66.605 .179 81.038 12.861 82.993 12.458"/>
        <polygon points="36.233 .179 36.094 .338 56.18 17.989 58.941 17.42 39.319 .179"/>
        <polygon points="45.497 .179 41.685 .179 60.856 17.024 63.944 16.388"/>
        <polygon points="57.348 .179 53.939 .179 70.78 14.978 73.543 14.409"/>
        <polygon points="51.695 .179 47.883 .179 65.875 15.989 68.966 15.352"/>
        <polygon points="14.601 .179 12.559 .179 37.269 21.891 38.923 21.549"/>
        <polygon points="20.841 .179 18.426 .179 42.021 20.911 43.975 20.508"/>
        <polygon points="27.009 .179 24.267 .179 46.75 19.935 48.971 19.477"/>
        <polygon points="33.295 .179 29.979 .179 51.377 18.98 54.062 18.426"/>
        <polygon points="8.282 .179 6.816 .179 32.618 22.85 33.806 22.605"/>
        <polygon points="27.896 23.825 28.794 23.639 2.092 .179 .983 .179"/>
      </g>
      <polygon points="147.516 2.179 5.312 2.179 29.754 26.473"/>
      <path fill="#1D1D1B" fill-rule="nonzero" d="M.09.025h168.533L29.056 28.816.09.025zm147.426 2.154H5.312l24.441 24.294L147.516 2.179z"/>
    </g>
    <g fill-rule="nonzero" transform="translate(366)">
      <polygon fill="#3A673A" points="7.202 18.741 78.262 32.163 47.012 1.102 18.895 1.102 1.473 12.243" opacity=".32"/>
      <g fill="#1D1D1B" transform="translate(2 1)">
        <polygon points="5.896 17.741 14.6 19.385 5.864 7.78 .604 11.743"/>
        <polygon points="75.051 30.465 71.479 25.723 45.7 .102 44.336 .102 43.603 .653 64.854 28.877 74.691 30.736"/>
        <polygon points="40.471 .102 30.672 .102 30.08 .547 49.182 25.917 61.686 28.279"/>
        <polygon points="26.938 .102 18.071 .102 16.885 .995 33.404 22.937 45.905 25.297"/>
        <polygon points="14.815 1.872 7.575 6.502 17.718 19.974 30.22 22.334"/>
      </g>
      <path fill="#1D1D1B" d="M7.331 19.731L82.2 33.872 48.145.025H19.27L.522 12.012l6.809 7.719zM19.9 2.179h27.355l28.446 28.272L8.46 17.75l-4.658-5.278L19.9 2.179z"/>
    </g>
    <g transform="translate(355)">
      <polygon fill="#819371" fill-rule="nonzero" points="12.473 12.243 29.895 1.102 2.65 1.102" opacity=".34"/>
      <g fill="#1D1D1B" fill-rule="nonzero" transform="translate(5 3)">
        <rect width="8.304" height="1" x="5.224" y="4.797"/>
        <polygon points="11.42 6.801 11.42 6.37 5.762 6.37 5.762 6.521 6.01 6.801"/>
        <rect width="12.702" height="1" x="3.698" y="3.272"/>
        <rect width="15.755" height="1" x="2.441" y="1.747"/>
        <rect width="20.063" height="1" x=".87" y=".174"/>
      </g>
      <polygon points="13.161 12.243 30.586 1.102 3.341 1.102"/>
      <path fill="#1D1D1B" fill-rule="nonzero" d="M.954.025h33.315L12.962 13.648.954.025zM26.9 2.179H5.725l7.634 8.657L26.9 2.179z"/>
    </g>
    <g transform="translate(279)">
      <polygon fill="#00A256" fill-rule="nonzero" points="6.621 10.516 98.294 23.383 78.65 1.102 60.789 1.102" opacity=".27"/>
      <g fill="#1D1D1B" fill-rule="nonzero" transform="translate(9 1)">
        <polygon points="86.684 18.642 82.63 14.042 76.197 20.448 83.8 21.516"/>
        <polygon points=".158 9.774 7.761 10.842 11.373 7.247 .863 9.072"/>
        <polygon points="80.897 12.079 76.844 7.479 65.791 18.488 66.37 19.069 72.952 19.993"/>
        <polygon points="75.085 5.482 71.028 .883 54.452 17.396 62.054 18.463"/>
        <polygon points="67.595 .682 67.017 .102 59.504 .102 43.887 15.661 44.18 15.954 51.266 16.95"/>
        <polygon points="55.521 .322 55.301 .102 52.481 .102 45.927 1.241 32.767 14.353 40.367 15.418"/>
        <polygon points="26.312 4.649 15.806 6.476 10.971 11.293 18.572 12.359"/>
        <polygon points="41.374 2.032 30.868 3.857 21.87 12.822 29.472 13.89"/>
      </g>
      <polygon points="7.313 10.516 98.982 23.383 79.341 1.102 61.481 1.102"/>
      <path fill="#1D1D1B" fill-rule="nonzero" d="M61.389.025h18.438l21.892 24.83L.369 10.629 61.389.025zm17.464 2.154H61.574l-47.317 8.224 81.993 11.51L78.853 2.179z"/>
    </g>
    <g fill-rule="nonzero" transform="translate(211)">
      <polygon fill="#93C01F" points="128.789 1.102 .572 1.102 .572 23.383" opacity=".26"/>
      <g fill="#1D1D1B" transform="translate(1 1)">
        <polygon points="108.531 .102 107.309 .102 106.832 3.864 108.083 3.646"/>
        <polygon points="112.492 .106 112.454 .102 111.269 .102 110.88 3.161 112.132 2.943"/>
        <polygon points=".262 19.454 .262 22.227 .782 22.293 1.132 22.232 3.944 .102 2.721 .102"/>
        <polygon points="7.748 .102 6.524 .102 3.771 21.774 5.021 21.557"/>
        <polygon points="11.689 .102 10.466 .102 7.801 21.073 9.052 20.856"/>
        <polygon points="15.493 .102 14.27 .102 11.691 20.397 12.942 20.181"/>
        <polygon points="19.452 .102 18.229 .102 15.739 19.694 16.99 19.477"/>
        <polygon points="23.255 .102 22.032 .102 19.629 19.018 20.88 18.801"/>
        <polygon points="27.197 .102 25.974 .102 23.659 18.317 24.91 18.101"/>
        <polygon points="31.001 .102 29.778 .102 27.548 17.642 28.8 17.424"/>
        <polygon points="35.016 .102 33.793 .102 31.655 16.928 32.906 16.711"/>
        <polygon points="38.819 .102 37.596 .102 35.544 16.252 36.795 16.036"/>
        <polygon points="42.762 .102 41.539 .102 39.576 15.551 40.827 15.334"/>
        <polygon points="46.565 .102 45.341 .102 43.465 14.875 44.715 14.659"/>
        <polygon points="50.524 .102 49.3 .102 47.512 14.172 48.763 13.956"/>
        <polygon points="54.328 .102 53.104 .102 51.403 13.497 52.654 13.279"/>
        <polygon points="58.269 .102 57.045 .102 55.434 12.795 56.684 12.579"/>
        <polygon points="62.073 .102 60.85 .102 59.322 12.12 60.573 11.902"/>
        <polygon points="65.978 .102 64.754 .102 63.315 11.426 64.566 11.209"/>
        <polygon points="69.78 .102 68.557 .102 67.205 10.75 68.456 10.534"/>
        <polygon points="73.723 .102 72.5 .102 71.237 10.049 72.487 9.833"/>
        <polygon points="77.527 .102 76.302 .102 75.125 9.374 76.376 9.157"/>
        <polygon points="81.486 .102 80.262 .102 79.173 8.67 80.424 8.454"/>
        <polygon points="85.288 .102 84.065 .102 83.063 7.995 84.313 7.777"/>
        <polygon points="89.229 .102 88.006 .102 87.094 7.293 88.345 7.077"/>
        <polygon points="93.034 .102 91.811 .102 90.981 6.618 92.231 6.401"/>
        <polygon points="96.984 .102 95.761 .102 95.039 5.795 95.431 5.845 96.274 5.698"/>
        <polygon points="100.788 .102 99.564 .102 98.912 5.241 100.163 5.022"/>
        <polygon points="104.73 .102 103.508 .102 102.975 4.29 103.791 4.393 104.193 4.322"/>
      </g>
      <path fill="#1D1D1B" d="M.185.025h129.297l.184 2.14L.187 24.665.185.025zM116.99 2.179H2.339v19.924L116.99 2.179z"/>
    </g>
    <g fill-rule="nonzero" transform="translate(157)">
      <polygon fill="#4A671E" points="54.572 1.102 54.572 23.383 54.572 45.661 2.764 27.644" opacity=".47"/>
      <g fill="#1D1D1B" transform="translate(4 3)">
        <polygon points="51.262 40.689 51.262 39.385 5.485 21.555 4.042 22.293"/>
        <polygon points="9.081 19.711 7.638 20.452 51.262 37.446 51.262 36.143"/>
        <polygon points="13.066 17.67 11.623 18.411 51.262 33.853 51.262 32.549"/>
        <polygon points="16.662 15.829 15.219 16.567 51.262 30.609 51.262 29.307"/>
        <polygon points="20.647 13.786 19.205 14.525 51.262 27.014 51.262 25.711"/>
        <polygon points="24.244 11.943 22.801 12.683 51.262 23.77 51.262 22.469"/>
        <polygon points="28.229 9.901 26.787 10.641 51.262 20.176 51.262 18.874"/>
        <polygon points="31.825 8.06 30.383 8.799 51.262 16.933 51.262 15.631"/>
        <polygon points="35.645 6.103 34.202 6.842 51.262 13.487 51.262 12.186"/>
        <polygon points="39.241 4.26 37.798 4.999 51.262 10.245 51.262 8.942"/>
        <polygon points="43.227 2.219 41.784 2.958 51.262 6.649 51.262 5.349"/>
        <polygon points="46.823 .375 45.38 1.116 51.262 3.407 51.262 2.105"/>
        <polygon points="14.133 29.749 45.306 40.59 1.579 23.556 .136 24.295"/>
      </g>
      <path fill="#1D1D1B" d="M56.377.065l-.038 47.109L.723 27.832 54.762.153l1.615-.088zm-2.192 44.081V2.864L6.19 27.454l47.995 16.692z"/>
    </g>
    <g fill-rule="nonzero">
      <polygon fill="#5FAD30" points="211.572 1.102 107.958 54.186 4.344 1.102" opacity=".29"/>
      <g fill="#1D1D1B" transform="translate(11 1)">
        <polygon points="189.812 .102 183.128 .102 174.861 13.627 184.589 8.644"/>
        <polygon points="194.061 .102 190.779 5.472 201.262 .102"/>
        <polygon points="107.997 .102 106.576 .102 79.729 44.006 80.811 44.561"/>
        <polygon points="97.063 .102 94.888 .102 70.829 39.446 72.488 40.295"/>
        <polygon points="86.113 .102 83.182 .102 61.915 34.879 64.151 36.025"/>
        <polygon points="75.182 .102 71.385 .102 52.932 30.277 55.828 31.762"/>
        <polygon points="64.138 .102 59.818 .102 44.124 25.765 47.419 27.454"/>
        <polygon points="53.244 .102 48.103 .102 35.204 21.195 39.124 23.204"/>
        <polygon points="42.335 .102 36.393 .102 26.287 16.627 30.816 18.947"/>
        <polygon points="31.371 .102 24.7 .102 17.383 12.065 22.468 14.67"/>
        <polygon points="20.437 .102 13.024 .102 8.493 7.51 14.142 10.404"/>
        <polygon points=".139 3.23 5.221 5.834 8.724 .102 2.052 .102"/>
        <polygon points="119.623 .102 117.444 .102 88.008 48.249 89.663 49.096"/>
        <polygon points="128.392 .102 96.346 52.52 97.646 53.186 99.425 52.274 131.33 .102"/>
        <polygon points="143.127 .102 139.322 .102 111.076 46.306 116.606 43.472"/>
        <polygon points="154.693 .102 150.365 .102 127.155 38.067 133.451 34.842"/>
        <polygon points="166.408 .102 161.258 .102 143.017 29.941 150.508 26.104"/>
        <polygon points="178.119 .102 172.166 .102 158.899 21.805 167.562 17.368"/>
      </g>
      <path fill="#1D1D1B" d="M.566.025h216.16l-108.08 55.371L.566.025zm207.231 2.154H9.496l99.15 50.798 99.151-50.798z"/>
    </g>
  </g>
</svg>
