<?xml version="1.0" encoding="utf-8"?>
<!-- Generator: Adobe Illustrator 15.1.0, SVG Export Plug-In . SVG Version: 6.00 Build 0)  -->
<!DOCTYPE svg PUBLIC "-//W3C//DTD SVG 1.1 Basic//EN" "http://www.w3.org/Graphics/SVG/1.1/DTD/svg11-basic.dtd">
<svg version="1.1" baseProfile="basic" id="Layer_1"
	 xmlns="http://www.w3.org/2000/svg" xmlns:xlink="http://www.w3.org/1999/xlink" x="0px" y="0px" width="1887.875px"
	 height="1887.874px" viewBox="0 0 1887.875 1887.874" xml:space="preserve">
<text transform="matrix(1 0 0 1 945.1191 953.6738)" display="none" font-family="'RosewoodStd-Regular'" font-size="157.9846">A</text>
<g id="old_try_too_big" display="none">
	<path id="letter_bg_green_outline" display="inline" fill="#A3B883" d="M1001.047,851.296l17.695,18.484l16.904,65.091
		c1.422,5.056,5.056,12.323,10.111,15.483v19.433h-40.919l-4.107-5.53v5.53h-40.13l-10.901-14.535v-12.955l4.108-1.265
		c3.95-1.264,6.793-6.478,10.427-19.748l18.801-69.989H1001.047 M1004.463,843.296h-3.416h-18.011h-6.135l-1.591,5.925
		L956.51,919.21c-2.967,10.836-4.802,13.611-5.457,14.301l-3.707,1.142l-5.646,1.738v5.907v12.955v2.667l1.6,2.133l10.901,14.535
		l2.4,3.2h4h40.13h8h37.026h8v-8v-19.433v-4.434l-3.76-2.351c-2.433-1.521-5.336-6.251-6.63-10.794l-16.883-65.007l-0.523-2.017
		l-1.44-1.505l-17.695-18.484L1004.463,843.296L1004.463,843.296z"/>
	<path id="letter_bg_black_outline" display="inline" fill="#3C3C3B" d="M1004.463,843.296l2.363,2.468l17.695,18.484l1.44,1.505
		l0.523,2.017l16.883,65.007c1.294,4.543,4.197,9.273,6.63,10.794l3.76,2.351v4.434v19.433v8h-8h-37.026h-8h-40.13h-4l-2.4-3.2
		l-10.901-14.535l-1.6-2.133v-2.667v-12.955v-5.907l5.646-1.738l3.707-1.142c0.655-0.689,2.489-3.465,5.457-14.301l18.801-69.989
		l1.591-5.925h6.135h18.011H1004.463 M1005.745,840.296h-1.281h-3.416h-18.011h-6.135h-2.301l-0.597,2.222l-1.591,5.925
		l-18.801,69.989c-2.257,8.242-3.766,11.411-4.403,12.508l-2.746,0.846l-5.646,1.738l-2.117,0.651v2.216v5.907v12.955v2.667v1
		l0.6,0.801l1.6,2.133l10.901,14.534l2.4,3.2l0.9,1.2h1.5h4h40.13h8h37.026h8h3v-3v-8v-19.433v-4.434v-1.662l-1.409-0.882
		l-3.76-2.351c-1.58-0.987-4.15-4.938-5.326-9.04l-16.874-64.971l-0.523-2.017l-0.196-0.756l-0.54-0.564l-1.44-1.505l-17.695-18.485
		l-2.363-2.468L1005.745,840.296L1005.745,840.296z"/>
	<path id="letter_bg_black" display="inline" fill="#3C3C3B" d="M1055.349,943.378l-3.76-2.351c-1.58-0.987-4.15-4.938-5.326-9.04
		l-16.874-64.971l-0.523-2.017l-0.196-0.756l-0.54-0.564l-1.44-1.505l-17.695-18.485l-2.363-2.468l-0.886-0.925h-1.281h-3.416
		h-18.011h-6.135h-2.301l-0.597,2.222l-1.591,5.925l-18.801,69.989c-2.257,8.242-3.766,11.411-4.403,12.508l-2.746,0.846
		l-5.646,1.738l-2.117,0.651v2.216v5.907v12.955v2.667v1l0.6,0.801l1.6,2.133l10.901,14.534l2.4,3.2l0.9,1.2h1.5h4h40.13h8h37.026h8
		h3v-3v-8v-19.433v-4.434v-1.662L1055.349,943.378z"/>
	<path id="letter_bg_green_1_" display="inline" fill="#A3B883" d="M1049.999,943.571c-2.433-1.521-5.336-6.251-6.63-10.794
		l-16.883-65.007l-0.523-2.017l-1.44-1.505l-17.695-18.484l-2.363-2.468h-3.416h-18.011h-6.135l-1.591,5.925L956.51,919.21
		c-2.967,10.836-4.802,13.611-5.457,14.301l-3.707,1.142l-5.646,1.738v5.907v12.955v2.667l1.6,2.133l10.901,14.535l2.4,3.2h4h40.13
		h8h37.026h8v-8v-19.433v-4.434L1049.999,943.571z"/>
</g>
<g id="bg">
	<path fill="#3C3C3B" d="M1664.036,1428.366c-45.872-28.699-88.836-108.579-105.919-168.901l-237.789-915.642
		c0,0-2.711-16.391-5.488-21.073c-5.282-8.919-281.445-297.882-288.983-301.878c-7.171-3.801-345.326-6.331-353.533,0
		c-8.072,6.227-281.374,1047.395-281.374,1047.395c-55.646,203.247-87.965,218.961-91.316,220.029
		c0,0-106.127,29.318-113.222,37.779c-4.799,5.727-5.381,262.431-1,270.148c9.317,16.404,172.234,247.169,195.372,259.506
		c13.131,7.002,1317.586,7.401,1322.621,1c10.679-13.588,4.889-397.668,0-403.783
		C1697.68,1445.801,1664.036,1428.366,1664.036,1428.366z"/>
	<path id="letter_bg_green" fill="#A3B883" d="M1649.498,1451.616c-52.302-32.704-98.814-117.683-117.851-184.967L1293.78,350.732
		l-3.69-14.2l-10.132-10.588L1030.799,65.676l-16.625-17.369h-24.059H736.529h-43.186l-11.208,41.714l-264.716,985.417
		c-15.082,55.106-61.201,223.552-109.578,239.041l-57.244,17.603l-39.751,12.245v41.583v182.41v18.778l11.26,15.02l153.488,204.655
		l16.906,22.52h28.153h565.028h56.317h1.513h576.139h56.318v-56.317v-273.608v-31.217L1649.498,1451.616z"/>
	<path id="letter_bg_2_" fill="#FFFFFF" d="M990.115,104.625l249.147,260.255l238.011,916.49
		c20.027,71.184,71.182,173.491,142.377,217.995v273.608h-576.139l-57.83-77.872v77.872H420.653l-153.489-204.655v-182.41
		l57.843-17.799c55.606-17.786,95.646-91.211,146.812-278.056l264.709-985.429H990.115z"/>
</g>
<g id="letter">
	<path d="M990.115,104.625l249.147,260.255l238.011,916.49c20.027,71.184,71.182,173.491,142.377,217.995v273.608h-576.139
		l-57.83-77.872v77.872H420.653l-153.488-204.655v-182.41l57.842-17.799c55.606-17.786,95.646-91.211,146.813-278.056
		l264.709-985.429H990.115z M958.976,1092.285l15.582,66.737c35.585,169.044,8.895,226.887-48.95,244.687l-57.83,15.568v126.797
		h547.218v-126.797l-62.291-24.477c-37.8-13.337-75.629-77.846-115.673-233.55L974.558,144.67H767.673l-255.816,945.385
		c-62.282,229.119-100.099,295.854-155.712,313.654l-48.943,15.568v126.797h471.601v-126.797l-57.844-15.568
		c-48.937-17.8-82.305-113.444-48.937-244.687l17.792-66.737H958.976z M801.042,182.471H941.19L1108.006,820.9
		c-26.68-17.786-53.372-17.786-80.076,0c13.353,28.921,48.95,75.643,86.765,109.01c-11.123,91.192-15.583,184.607,11.136,364.8
		c-57.856-180.192-93.441-262.471-153.501-364.8c22.244-33.368,46.708-80.089,48.937-109.01c-33.381-17.786-62.29-17.786-80.076,0
		l-95.665-442.666h-4.438L720.958,820.9c-26.691-17.786-57.836-17.786-91.204,0L801.042,182.471z M740.981,894.312l93.421-340.344
		h8.914l73.394,340.344H740.981z M1027.93,818.683c0-77.859,8.893-122.35,22.245-155.718
		c-40.032-53.383-73.414-133.459-133.466-300.301c20.021,166.841,17.806,246.917,6.688,300.301
		c33.349,33.369,64.487,77.859,97.868,155.718H1027.93z"/>
</g>
</svg>
