<svg xmlns="http://www.w3.org/2000/svg" width="40" height="49" viewBox="0 0 40 49">
  <g fill="none">
    <path fill="#3C3C3B" d="M38.797 36.947c-1.201-.752-2.326-2.843-2.773-4.422l-6.225-23.97s-.07-.429-.144-.551C29.517 7.77 22.288.206 22.09.1c-.187-.1-9.04-.165-9.254 0-.212.163-7.366 27.42-7.366 27.42-1.457 5.32-2.303 5.731-2.39 5.759 0 0-2.779.767-2.965.989-.125.15-.14 6.87-.026 7.072.244.43 4.51 6.47 5.115 6.793.344.184 34.492.194 34.623.026.28-.355.128-10.41 0-10.57-.15-.187-1.03-.643-1.03-.643z"/>
    <path fill="#A3B883" d="M38.416 37.555c-1.369-.856-2.587-3.08-3.085-4.842L29.104 8.736l-.096-.371-.266-.277-6.522-6.814-.435-.454h-8.399l-.293 1.092-6.93 25.796c-.395 1.442-1.602 5.852-2.869 6.257l-1.498.461-1.04.32v6.356l.294.393 4.018 5.358.442.59h33.6v-9.455l-.693-.433z"/>
    <path fill="#FFFFFF" d="M21.155 2.294l6.522 6.813 6.23 23.992c.525 1.863 1.864 4.541 3.728 5.706v7.163H22.553l-1.514-2.039v2.039H6.247L2.23 40.61v-4.775l1.515-.466c1.455-.465 2.503-2.387 3.843-7.279l6.93-25.796h6.638z"/>
    <path fill="#000000" d="M21.155 2.293l6.522 6.813 6.23 23.992c.525 1.864 1.864 4.542 3.728 5.707v7.162H22.553l-1.514-2.038v2.038H6.247L2.229 40.61v-4.775l1.515-.466c1.455-.466 2.503-2.388 3.843-7.28l6.93-25.795h6.638zm-.815 25.855l.407 1.747c.932 4.426.233 5.94-1.281 6.406l-1.514.407v3.32h14.325v-3.32l-1.63-.64c-.99-.35-1.98-2.038-3.028-6.114L20.747 3.342h-5.415L8.635 28.09c-1.63 5.998-2.62 7.745-4.076 8.21l-1.282.408v3.32h12.346v-3.32l-1.514-.407c-1.281-.466-2.155-2.97-1.281-6.406l.465-1.747h7.047zM16.205 4.331h3.669l4.367 16.713c-.699-.466-1.397-.466-2.096 0 .35.757 1.281 1.98 2.271 2.854-.291 2.387-.408 4.832.291 9.55-1.514-4.718-2.446-6.872-4.018-9.55.582-.874 1.223-2.097 1.281-2.854-.874-.466-1.63-.466-2.096 0L17.37 9.456h-.117l-3.144 11.588c-.699-.466-1.514-.466-2.388 0l4.484-16.713zm-1.572 18.636l2.445-8.91h.234l1.921 8.91h-4.6zm7.512-1.98c0-2.038.232-3.203.582-4.076-1.048-1.398-1.922-3.494-3.494-7.862.524 4.368.466 6.464.175 7.862.873.873 1.688 2.038 2.562 4.076h.175z"/>
  </g>
</svg>
