<?xml version="1.0" encoding="utf-8"?>
<!-- Generator: Adobe Illustrator 15.1.0, SVG Export Plug-In . SVG Version: 6.00 Build 0)  -->
<!DOCTYPE svg PUBLIC "-//W3C//DTD SVG 1.1//EN" "http://www.w3.org/Graphics/SVG/1.1/DTD/svg11.dtd">
<svg version="1.1" id="Layer_1" xmlns="http://www.w3.org/2000/svg" xmlns:xlink="http://www.w3.org/1999/xlink" x="0px" y="0px"
	 width="667.434px" height="55.308px" viewBox="70.566 54.025 667.434 55.308"
	 enable-background="new 70.566 54.025 667.434 55.308" xml:space="preserve">
<g id="bottom">
	<g id="left">
		<polygon opacity="0.4" fill="#00A256" enable-background="new    " points="591.118,64.853 709.646,55.102 638.378,55.102 		"/>
		<g>
			<polygon fill="#1D1D1B" points="672.655,56.179 672.154,56.179 673.047,57.397 673.52,57.36 			"/>
			<polygon fill="#1D1D1B" points="669.306,56.179 668.805,56.179 669.879,57.646 670.352,57.608 			"/>
			<polygon fill="#1D1D1B" points="665.808,56.179 665.304,56.179 666.567,57.907 667.045,57.868 			"/>
			<polygon fill="#1D1D1B" points="662.459,56.179 661.954,56.179 663.399,58.154 663.877,58.118 			"/>
			<polygon fill="#1D1D1B" points="686.02,56.179 685.519,56.179 685.685,56.405 686.158,56.368 			"/>
			<polygon fill="#1D1D1B" points="682.671,56.179 682.17,56.179 682.517,56.654 682.99,56.618 			"/>
			<polygon fill="#1D1D1B" points="679.173,56.179 678.669,56.179 679.206,56.915 679.683,56.877 			"/>
			<polygon fill="#1D1D1B" points="675.822,56.179 675.318,56.179 676.039,57.163 676.515,57.125 			"/>
			<polygon fill="#1D1D1B" points="645.696,56.179 645.195,56.179 647.552,59.397 648.023,59.36 			"/>
			<polygon fill="#1D1D1B" points="644.384,59.646 644.855,59.609 642.347,56.179 641.846,56.179 			"/>
			<polygon fill="#1D1D1B" points="638.892,56.237 638.454,56.329 641.071,59.907 641.548,59.87 			"/>
			<polygon fill="#1D1D1B" points="635.981,56.838 635.545,56.928 637.904,60.154 638.38,60.118 			"/>
			<polygon fill="#1D1D1B" points="659.062,56.179 658.561,56.179 660.19,58.407 660.663,58.37 			"/>
			<polygon fill="#1D1D1B" points="655.713,56.179 655.212,56.179 657.022,58.654 657.495,58.618 			"/>
			<polygon fill="#1D1D1B" points="652.215,56.179 651.711,56.179 653.712,58.915 654.187,58.877 			"/>
			<polygon fill="#1D1D1B" points="648.864,56.179 648.36,56.179 650.545,59.163 651.02,59.125 			"/>
			<polygon fill="#1D1D1B" points="633.057,57.441 632.621,57.532 634.724,60.404 635.197,60.368 			"/>
			<polygon fill="#1D1D1B" points="618.495,60.446 618.062,60.536 618.875,61.647 619.347,61.611 			"/>
			<polygon fill="#1D1D1B" points="615.586,61.047 615.151,61.135 615.707,61.896 616.18,61.859 			"/>
			<polygon fill="#1D1D1B" points="612.544,61.674 612.109,61.764 612.396,62.157 612.868,62.12 			"/>
			<polygon fill="#1D1D1B" points="609.229,62.404 609.7,62.368 609.634,62.274 609.199,62.364 			"/>
			<polygon fill="#1D1D1B" points="630.107,58.049 629.675,58.14 631.515,60.657 631.986,60.62 			"/>
			<polygon fill="#1D1D1B" points="627.197,58.65 626.764,58.741 628.347,60.904 628.819,60.868 			"/>
			<polygon fill="#1D1D1B" points="624.156,59.277 623.721,59.368 625.036,61.165 625.51,61.127 			"/>
			<polygon fill="#1D1D1B" points="621.246,59.877 620.811,59.967 621.868,61.413 622.342,61.375 			"/>
		</g>
		<g>
			<path fill="#1D1D1B" d="M738,54.025L591.892,65.926l-0.3-2.129l47.364-9.772H738z M688.578,56.179h-49.401l-30.314,6.255
				L688.578,56.179z"/>
		</g>
	</g>
	<g id="left2">
		<polygon opacity="0.37" fill="#93C01F" enable-background="new    " points="509.716,81.644 638.378,55.102 483.012,55.102 		"/>
		<g>
			<polygon fill="#1D1D1B" points="596.979,56.179 594.934,56.179 601.319,61.79 602.975,61.447 			"/>
			<polygon fill="#1D1D1B" points="603.218,56.179 600.802,56.179 606.071,60.809 608.027,60.405 			"/>
			<polygon fill="#1D1D1B" points="609.385,56.179 606.642,56.179 610.802,59.833 613.022,59.375 			"/>
			<polygon fill="#1D1D1B" points="615.672,56.179 612.356,56.179 615.43,58.877 618.113,58.325 			"/>
			<polygon fill="#1D1D1B" points="621.763,56.179 618.353,56.179 620.284,57.877 623.048,57.307 			"/>
			<polygon fill="#1D1D1B" points="627.941,56.179 624.128,56.179 624.963,56.913 628.052,56.274 			"/>
			<polygon fill="#1D1D1B" points="590.657,56.179 589.193,56.179 596.671,62.749 597.857,62.504 			"/>
			<polygon fill="#1D1D1B" points="584.471,56.179 583.361,56.179 591.947,63.723 592.845,63.538 			"/>
			<polygon fill="#1D1D1B" points="578.283,56.179 577.471,56.179 587.177,64.708 587.832,64.571 			"/>
			<polygon fill="#1D1D1B" points="572.369,56.179 571.262,56.179 582.148,65.745 583.047,65.559 			"/>
			<polygon fill="#1D1D1B" points="566.558,56.179 565.094,56.179 577.151,66.775 578.34,66.53 			"/>
			<polygon fill="#1D1D1B" points="560.772,56.179 558.73,56.179 572,67.838 573.654,67.497 			"/>
			<polygon fill="#1D1D1B" points="549.036,56.179 546.296,56.179 561.929,69.915 564.148,69.458 			"/>
			<polygon fill="#1D1D1B" points="555.018,56.179 552.605,56.179 567.038,68.861 568.993,68.458 			"/>
			<polygon fill="#1D1D1B" points="522.233,56.179 522.094,56.338 542.18,73.989 544.941,73.42 525.319,56.179 			"/>
			<polygon fill="#1D1D1B" points="531.497,56.179 527.685,56.179 546.856,73.024 549.944,72.388 			"/>
			<polygon fill="#1D1D1B" points="543.348,56.179 539.939,56.179 556.78,70.978 559.543,70.409 			"/>
			<polygon fill="#1D1D1B" points="537.695,56.179 533.883,56.179 551.875,71.989 554.966,71.352 			"/>
			<polygon fill="#1D1D1B" points="500.601,56.179 498.559,56.179 523.269,77.891 524.923,77.549 			"/>
			<polygon fill="#1D1D1B" points="506.841,56.179 504.426,56.179 528.021,76.911 529.975,76.508 			"/>
			<polygon fill="#1D1D1B" points="513.009,56.179 510.267,56.179 532.75,75.935 534.971,75.477 			"/>
			<polygon fill="#1D1D1B" points="519.295,56.179 515.979,56.179 537.377,74.98 540.062,74.426 			"/>
			<polygon fill="#1D1D1B" points="494.282,56.179 492.816,56.179 518.618,78.85 519.806,78.605 			"/>
			<polygon fill="#1D1D1B" points="513.896,79.825 514.794,79.639 488.092,56.179 486.983,56.179 			"/>
		</g>
		<g>
			<polygon fill="none" points="628.516,56.179 486.312,56.179 510.754,80.473 			"/>
			<path fill="#1D1D1B" d="M481.09,54.025h168.533L510.056,82.816L481.09,54.025z M628.516,56.179H486.312l24.441,24.294
				L628.516,56.179z"/>
		</g>
	</g>
	<g id="left3">
		<polygon opacity="0.32" fill="#3A673A" enable-background="new    " points="443.202,72.741 514.262,86.163 483.012,55.102 
			454.895,55.102 437.473,66.243 		"/>
		<g>
			<polygon fill="#1D1D1B" points="443.896,72.741 452.6,74.385 443.864,62.78 438.604,66.743 			"/>
			<polygon fill="#1D1D1B" points="513.051,85.465 509.479,80.723 483.7,55.102 482.336,55.102 481.603,55.653 502.854,83.877 
				512.691,85.736 			"/>
			<polygon fill="#1D1D1B" points="478.471,55.102 468.672,55.102 468.08,55.547 487.182,80.917 499.686,83.279 			"/>
			<polygon fill="#1D1D1B" points="464.938,55.102 456.071,55.102 454.885,55.995 471.404,77.937 483.905,80.297 			"/>
			<polygon fill="#1D1D1B" points="452.815,56.872 445.575,61.502 455.718,74.974 468.22,77.334 			"/>
		</g>
		<path fill="#1D1D1B" d="M443.331,73.731L518.2,87.872l-34.055-33.847H455.27l-18.748,11.987L443.331,73.731z M455.9,56.179h27.355
			l28.446,28.272L444.46,71.75l-4.658-5.278L455.9,56.179z"/>
	</g>
	<g id="left4">
		<polygon opacity="0.34" fill="#819371" enable-background="new    " points="437.473,66.243 454.895,55.102 427.65,55.102 		"/>
		<g>
			<rect x="435.224" y="61.797" fill="#1D1D1B" width="8.304" height="0.434"/>
			<polygon fill="#1D1D1B" points="441.42,63.801 441.42,63.37 435.762,63.37 435.762,63.521 436.01,63.801 			"/>
			<rect x="433.698" y="60.272" fill="#1D1D1B" width="12.702" height="0.432"/>
			<rect x="432.441" y="58.747" fill="#1D1D1B" width="15.755" height="0.433"/>
			<rect x="430.87" y="57.174" fill="#1D1D1B" width="20.063" height="0.434"/>
		</g>
		<polygon fill="none" points="438.161,66.243 455.586,55.102 428.341,55.102 		"/>
		<path fill="#1D1D1B" d="M425.954,54.025h33.315l-21.307,13.623L425.954,54.025z M451.9,56.179h-21.175l7.634,8.657L451.9,56.179z"
			/>
	</g>
	<g id="left5">
		<polygon opacity="0.27" fill="#00A256" enable-background="new    " points="355.621,64.516 447.294,77.383 427.65,55.102 
			409.789,55.102 		"/>
		<g>
			<polygon fill="#1D1D1B" points="444.684,73.642 440.63,69.042 434.197,75.448 441.8,76.516 			"/>
			<polygon fill="#1D1D1B" points="358.158,64.774 365.761,65.842 369.373,62.247 358.863,64.072 			"/>
			<polygon fill="#1D1D1B" points="438.897,67.079 434.844,62.479 423.791,73.488 424.37,74.069 430.952,74.993 			"/>
			<polygon fill="#1D1D1B" points="433.085,60.482 429.028,55.883 412.452,72.396 420.054,73.463 			"/>
			<polygon fill="#1D1D1B" points="425.595,55.682 425.017,55.102 417.504,55.102 401.887,70.661 402.18,70.954 409.266,71.95 			
				"/>
			<polygon fill="#1D1D1B" points="413.521,55.322 413.301,55.102 410.481,55.102 403.927,56.241 390.767,69.353 398.367,70.418 			
				"/>
			<polygon fill="#1D1D1B" points="384.312,59.649 373.806,61.476 368.971,66.293 376.572,67.359 			"/>
			<polygon fill="#1D1D1B" points="399.374,57.032 388.868,58.857 379.87,67.822 387.472,68.89 			"/>
		</g>
		<polygon fill="none" points="356.313,64.516 447.982,77.383 428.341,55.102 410.481,55.102 		"/>
		<path fill="#1D1D1B" d="M410.389,54.025h18.438l21.892,24.83l-101.35-14.226L410.389,54.025z M427.853,56.179h-17.279
			l-47.317,8.224l81.993,11.51L427.853,56.179z"/>
	</g>
	<g id="left6">
		<polygon opacity="0.26" fill="#93C01F" enable-background="new    " points="409.789,55.102 281.572,55.102 281.572,77.383 		"/>
		<g>
			<polygon fill="#1D1D1B" points="390.531,55.102 389.309,55.102 388.832,58.864 390.083,58.646 			"/>
			<polygon fill="#1D1D1B" points="394.492,55.106 394.454,55.102 393.269,55.102 392.88,58.161 394.132,57.943 			"/>
			<polygon fill="#1D1D1B" points="282.262,74.454 282.262,77.227 282.782,77.293 283.132,77.232 285.944,55.102 284.721,55.102 			
				"/>
			<polygon fill="#1D1D1B" points="289.748,55.102 288.524,55.102 285.771,76.774 287.021,76.557 			"/>
			<polygon fill="#1D1D1B" points="293.689,55.102 292.466,55.102 289.801,76.073 291.052,75.856 			"/>
			<polygon fill="#1D1D1B" points="297.493,55.102 296.27,55.102 293.691,75.397 294.942,75.181 			"/>
			<polygon fill="#1D1D1B" points="301.452,55.102 300.229,55.102 297.739,74.694 298.99,74.477 			"/>
			<polygon fill="#1D1D1B" points="305.255,55.102 304.032,55.102 301.629,74.018 302.88,73.801 			"/>
			<polygon fill="#1D1D1B" points="309.197,55.102 307.974,55.102 305.659,73.317 306.91,73.101 			"/>
			<polygon fill="#1D1D1B" points="313.001,55.102 311.778,55.102 309.548,72.642 310.8,72.424 			"/>
			<polygon fill="#1D1D1B" points="317.016,55.102 315.793,55.102 313.655,71.928 314.906,71.711 			"/>
			<polygon fill="#1D1D1B" points="320.819,55.102 319.596,55.102 317.544,71.252 318.795,71.036 			"/>
			<polygon fill="#1D1D1B" points="324.762,55.102 323.539,55.102 321.576,70.551 322.827,70.334 			"/>
			<polygon fill="#1D1D1B" points="328.565,55.102 327.341,55.102 325.465,69.875 326.715,69.659 			"/>
			<polygon fill="#1D1D1B" points="332.524,55.102 331.3,55.102 329.512,69.172 330.763,68.956 			"/>
			<polygon fill="#1D1D1B" points="336.328,55.102 335.104,55.102 333.403,68.497 334.654,68.279 			"/>
			<polygon fill="#1D1D1B" points="340.269,55.102 339.045,55.102 337.434,67.795 338.684,67.579 			"/>
			<polygon fill="#1D1D1B" points="344.073,55.102 342.85,55.102 341.322,67.12 342.573,66.902 			"/>
			<polygon fill="#1D1D1B" points="347.978,55.102 346.754,55.102 345.315,66.426 346.566,66.209 			"/>
			<polygon fill="#1D1D1B" points="351.78,55.102 350.557,55.102 349.205,65.75 350.456,65.534 			"/>
			<polygon fill="#1D1D1B" points="355.723,55.102 354.5,55.102 353.237,65.049 354.487,64.833 			"/>
			<polygon fill="#1D1D1B" points="359.527,55.102 358.302,55.102 357.125,64.374 358.376,64.157 			"/>
			<polygon fill="#1D1D1B" points="363.486,55.102 362.262,55.102 361.173,63.67 362.424,63.454 			"/>
			<polygon fill="#1D1D1B" points="367.288,55.102 366.065,55.102 365.063,62.995 366.313,62.777 			"/>
			<polygon fill="#1D1D1B" points="371.229,55.102 370.006,55.102 369.094,62.293 370.345,62.077 			"/>
			<polygon fill="#1D1D1B" points="375.034,55.102 373.811,55.102 372.981,61.618 374.231,61.401 			"/>
			<polygon fill="#1D1D1B" points="378.984,55.102 377.761,55.102 377.039,60.795 377.431,60.845 378.274,60.698 			"/>
			<polygon fill="#1D1D1B" points="382.788,55.102 381.564,55.102 380.912,60.241 382.163,60.022 			"/>
			<polygon fill="#1D1D1B" points="386.73,55.102 385.508,55.102 384.975,59.29 385.791,59.393 386.193,59.322 			"/>
		</g>
		<path fill="#1D1D1B" d="M281.185,54.025h129.297l0.184,2.14l-129.479,22.5L281.185,54.025L281.185,54.025z M397.99,56.179H283.339
			v19.924L397.99,56.179z"/>
	</g>
	<g id="left7">
		<polygon opacity="0.47" fill="#4A671E" enable-background="new    " points="281.572,55.102 281.572,77.383 281.572,99.661 
			229.764,81.644 		"/>
		<g>
			<polygon fill="#1D1D1B" points="282.262,97.689 282.262,96.385 236.485,78.555 235.042,79.293 			"/>
			<polygon fill="#1D1D1B" points="240.081,76.711 238.638,77.452 282.262,94.446 282.262,93.143 			"/>
			<polygon fill="#1D1D1B" points="244.066,74.67 242.623,75.411 282.262,90.853 282.262,89.549 			"/>
			<polygon fill="#1D1D1B" points="247.662,72.829 246.219,73.567 282.262,87.609 282.262,86.307 			"/>
			<polygon fill="#1D1D1B" points="251.647,70.786 250.205,71.525 282.262,84.014 282.262,82.711 			"/>
			<polygon fill="#1D1D1B" points="255.244,68.943 253.801,69.683 282.262,80.77 282.262,79.469 			"/>
			<polygon fill="#1D1D1B" points="259.229,66.901 257.787,67.641 282.262,77.176 282.262,75.874 			"/>
			<polygon fill="#1D1D1B" points="262.825,65.06 261.383,65.799 282.262,73.933 282.262,72.631 			"/>
			<polygon fill="#1D1D1B" points="266.645,63.103 265.202,63.842 282.262,70.487 282.262,69.186 			"/>
			<polygon fill="#1D1D1B" points="270.241,61.26 268.798,61.999 282.262,67.245 282.262,65.942 			"/>
			<polygon fill="#1D1D1B" points="274.227,59.219 272.784,59.958 282.262,63.649 282.262,62.349 			"/>
			<polygon fill="#1D1D1B" points="277.823,57.375 276.38,58.116 282.262,60.407 282.262,59.105 			"/>
			<polygon fill="#1D1D1B" points="245.133,86.749 276.306,97.59 232.579,80.556 231.136,81.295 			"/>
		</g>
		<path fill="#1D1D1B" d="M283.377,54.065l-0.038,47.109l-55.616-19.342l54.039-27.679L283.377,54.065z M281.185,98.146V56.864
			l-47.995,24.59L281.185,98.146z"/>
	</g>
	<g id="left8">
		<polygon opacity="0.29" fill="#5FAD30" enable-background="new    " points="281.572,55.102 177.958,108.186 74.344,55.102 		"/>
		<g>
			<polygon fill="#1D1D1B" points="270.812,55.102 264.128,55.102 255.861,68.627 265.589,63.644 			"/>
			<polygon fill="#1D1D1B" points="275.061,55.102 271.779,60.472 282.262,55.102 			"/>
			<polygon fill="#1D1D1B" points="188.997,55.102 187.576,55.102 160.729,99.006 161.811,99.561 			"/>
			<polygon fill="#1D1D1B" points="178.063,55.102 175.888,55.102 151.829,94.446 153.488,95.295 			"/>
			<polygon fill="#1D1D1B" points="167.113,55.102 164.182,55.102 142.915,89.879 145.151,91.025 			"/>
			<polygon fill="#1D1D1B" points="156.182,55.102 152.385,55.102 133.932,85.277 136.828,86.762 			"/>
			<polygon fill="#1D1D1B" points="145.138,55.102 140.818,55.102 125.124,80.765 128.419,82.454 			"/>
			<polygon fill="#1D1D1B" points="134.244,55.102 129.103,55.102 116.204,76.195 120.124,78.204 			"/>
			<polygon fill="#1D1D1B" points="123.335,55.102 117.393,55.102 107.287,71.627 111.816,73.947 			"/>
			<polygon fill="#1D1D1B" points="112.371,55.102 105.7,55.102 98.383,67.065 103.468,69.67 			"/>
			<polygon fill="#1D1D1B" points="101.437,55.102 94.024,55.102 89.493,62.51 95.142,65.404 			"/>
			<polygon fill="#1D1D1B" points="81.139,58.23 86.221,60.834 89.724,55.102 83.052,55.102 			"/>
			<polygon fill="#1D1D1B" points="200.623,55.102 198.444,55.102 169.008,103.249 170.663,104.096 			"/>
			<polygon fill="#1D1D1B" points="209.392,55.102 177.346,107.52 178.646,108.186 180.425,107.274 212.33,55.102 			"/>
			<polygon fill="#1D1D1B" points="224.127,55.102 220.322,55.102 192.076,101.306 197.606,98.472 			"/>
			<polygon fill="#1D1D1B" points="235.693,55.102 231.365,55.102 208.155,93.067 214.451,89.842 			"/>
			<polygon fill="#1D1D1B" points="247.408,55.102 242.258,55.102 224.017,84.941 231.508,81.104 			"/>
			<polygon fill="#1D1D1B" points="259.119,55.102 253.166,55.102 239.899,76.805 248.562,72.368 			"/>
		</g>
		<path fill="#1D1D1B" d="M70.566,54.025h216.16l-108.08,55.371L70.566,54.025z M277.797,56.179H79.496l99.15,50.798L277.797,56.179
			z"/>
	</g>
</g>
</svg>
