<?xml version="1.0" encoding="utf-8"?>
<!-- Generator: Adobe Illustrator 15.1.0, SVG Export Plug-In . SVG Version: 6.00 Build 0)  -->
<!DOCTYPE svg PUBLIC "-//W3C//DTD SVG 1.1 Basic//EN" "http://www.w3.org/Graphics/SVG/1.1/DTD/svg11-basic.dtd">
<svg version="1.1" baseProfile="basic" id="Layer_1"
	 xmlns="http://www.w3.org/2000/svg" xmlns:xlink="http://www.w3.org/1999/xlink" x="0px" y="0px" width="768px" height="109.333px"
	 viewBox="0 0 768 109.333" xml:space="preserve">
<g id="bottom">
	<g id="left">
		<polygon opacity="0.4" fill="#00A256" points="591.118,64.853 709.646,55.102 638.377,55.102 		"/>
		<g>
			<polygon fill="#1D1D1B" points="672.655,56.179 672.154,56.179 673.046,57.397 673.52,57.36 			"/>
			<polygon fill="#1D1D1B" points="669.306,56.179 668.805,56.179 669.878,57.646 670.352,57.608 			"/>
			<polygon fill="#1D1D1B" points="665.808,56.179 665.304,56.179 666.567,57.906 667.044,57.868 			"/>
			<polygon fill="#1D1D1B" points="662.458,56.179 661.954,56.179 663.399,58.154 663.876,58.117 			"/>
			<polygon fill="#1D1D1B" points="686.02,56.179 685.519,56.179 685.685,56.405 686.158,56.368 			"/>
			<polygon fill="#1D1D1B" points="682.67,56.179 682.169,56.179 682.517,56.654 682.99,56.617 			"/>
			<polygon fill="#1D1D1B" points="679.172,56.179 678.668,56.179 679.206,56.914 679.683,56.877 			"/>
			<polygon fill="#1D1D1B" points="675.822,56.179 675.318,56.179 676.039,57.162 676.515,57.125 			"/>
			<polygon fill="#1D1D1B" points="645.696,56.179 645.195,56.179 647.551,59.397 648.023,59.36 			"/>
			<polygon fill="#1D1D1B" points="644.383,59.646 644.855,59.609 642.347,56.179 641.846,56.179 			"/>
			<polygon fill="#1D1D1B" points="638.892,56.237 638.454,56.328 641.071,59.906 641.547,59.869 			"/>
			<polygon fill="#1D1D1B" points="635.981,56.838 635.544,56.928 637.904,60.154 638.379,60.117 			"/>
			<polygon fill="#1D1D1B" points="659.062,56.179 658.561,56.179 660.19,58.406 660.663,58.369 			"/>
			<polygon fill="#1D1D1B" points="655.712,56.179 655.211,56.179 657.022,58.654 657.495,58.617 			"/>
			<polygon fill="#1D1D1B" points="652.214,56.179 651.71,56.179 653.711,58.914 654.187,58.877 			"/>
			<polygon fill="#1D1D1B" points="648.864,56.179 648.36,56.179 650.544,59.163 651.02,59.126 			"/>
			<polygon fill="#1D1D1B" points="633.057,57.441 632.621,57.531 634.724,60.404 635.197,60.367 			"/>
			<polygon fill="#1D1D1B" points="618.495,60.446 618.062,60.535 618.875,61.647 619.347,61.611 			"/>
			<polygon fill="#1D1D1B" points="615.585,61.047 615.151,61.136 615.707,61.896 616.18,61.859 			"/>
			<polygon fill="#1D1D1B" points="612.543,61.674 612.109,61.764 612.396,62.156 612.868,62.119 			"/>
			<polygon fill="#1D1D1B" points="609.229,62.404 609.7,62.368 609.633,62.274 609.199,62.364 			"/>
			<polygon fill="#1D1D1B" points="630.107,58.05 629.674,58.14 631.515,60.656 631.986,60.619 			"/>
			<polygon fill="#1D1D1B" points="627.197,58.65 626.764,58.74 628.347,60.904 628.819,60.867 			"/>
			<polygon fill="#1D1D1B" points="624.156,59.277 623.721,59.367 625.036,61.164 625.509,61.127 			"/>
			<polygon fill="#1D1D1B" points="621.246,59.878 620.811,59.968 621.868,61.413 622.341,61.376 			"/>
		</g>
		<g>
			<polygon fill="none" points="591.808,64.853 716.082,55.102 639.069,55.102 			"/>
			<path fill="#1D1D1B" d="M638.957,54.025h77.125l0.084,2.152l-124.274,9.75l-0.3-2.13L638.957,54.025z M688.578,56.179h-49.402
				l-30.314,6.255L688.578,56.179z"/>
		</g>
	</g>
	<g id="left2">
		<polygon opacity="0.37" fill="#93C01F" points="509.715,81.644 638.377,55.102 483.012,55.102 		"/>
		<g>
			<polygon fill="#1D1D1B" points="596.979,56.179 594.934,56.179 601.319,61.789 602.975,61.447 			"/>
			<polygon fill="#1D1D1B" points="603.217,56.179 600.801,56.179 606.071,60.809 608.027,60.405 			"/>
			<polygon fill="#1D1D1B" points="609.384,56.179 606.642,56.179 610.802,59.833 613.022,59.375 			"/>
			<polygon fill="#1D1D1B" points="615.671,56.179 612.356,56.179 615.43,58.878 618.113,58.324 			"/>
			<polygon fill="#1D1D1B" points="621.763,56.179 618.353,56.179 620.284,57.877 623.047,57.307 			"/>
			<polygon fill="#1D1D1B" points="627.941,56.179 624.127,56.179 624.962,56.912 628.051,56.274 			"/>
			<polygon fill="#1D1D1B" points="590.657,56.179 589.193,56.179 596.67,62.748 597.857,62.504 			"/>
			<polygon fill="#1D1D1B" points="584.471,56.179 583.361,56.179 591.947,63.723 592.845,63.537 			"/>
			<polygon fill="#1D1D1B" points="578.283,56.179 577.471,56.179 587.176,64.707 587.832,64.571 			"/>
			<polygon fill="#1D1D1B" points="572.369,56.179 571.262,56.179 582.148,65.744 583.046,65.559 			"/>
			<polygon fill="#1D1D1B" points="566.558,56.179 565.093,56.179 577.151,66.775 578.339,66.53 			"/>
			<polygon fill="#1D1D1B" points="560.772,56.179 558.73,56.179 572,67.838 573.654,67.496 			"/>
			<polygon fill="#1D1D1B" points="549.036,56.179 546.295,56.179 561.929,69.915 564.148,69.457 			"/>
			<polygon fill="#1D1D1B" points="555.018,56.179 552.605,56.179 567.038,68.861 568.993,68.458 			"/>
			<polygon fill="#1D1D1B" points="522.233,56.179 522.093,56.339 542.18,73.989 544.941,73.42 525.319,56.179 			"/>
			<polygon fill="#1D1D1B" points="531.497,56.179 527.685,56.179 546.856,73.024 549.944,72.388 			"/>
			<polygon fill="#1D1D1B" points="543.348,56.179 539.939,56.179 556.78,70.978 559.542,70.408 			"/>
			<polygon fill="#1D1D1B" points="537.695,56.179 533.882,56.179 551.875,71.989 554.965,71.352 			"/>
			<polygon fill="#1D1D1B" points="500.601,56.179 498.559,56.179 523.269,77.891 524.922,77.55 			"/>
			<polygon fill="#1D1D1B" points="506.84,56.179 504.425,56.179 528.021,76.91 529.975,76.508 			"/>
			<polygon fill="#1D1D1B" points="513.008,56.179 510.267,56.179 532.75,75.935 534.971,75.477 			"/>
			<polygon fill="#1D1D1B" points="519.294,56.179 515.979,56.179 537.376,74.98 540.062,74.427 			"/>
			<polygon fill="#1D1D1B" points="494.282,56.179 492.816,56.179 518.618,78.85 519.806,78.605 			"/>
			<polygon fill="#1D1D1B" points="513.896,79.824 514.793,79.639 488.091,56.179 486.983,56.179 			"/>
		</g>
		<g>
			<polygon fill="none" points="628.516,56.179 486.312,56.179 510.753,80.473 			"/>
			<path fill="#1D1D1B" d="M481.089,54.025h168.534L510.056,82.816L481.089,54.025z M628.516,56.179H486.312l24.441,24.294
				L628.516,56.179z"/>
		</g>
	</g>
	<g id="left3">
		<polygon opacity="0.32" fill="#3A673A" points="443.202,72.74 514.262,86.163 483.012,55.102 454.895,55.102 437.473,66.242 		"/>
		<g>
			<polygon fill="#1D1D1B" points="443.896,72.74 452.6,74.385 443.864,62.78 438.604,66.743 			"/>
			<polygon fill="#1D1D1B" points="513.05,85.466 509.479,80.723 483.7,55.102 482.335,55.102 481.603,55.653 502.854,83.878 
				512.691,85.736 			"/>
			<polygon fill="#1D1D1B" points="478.471,55.102 468.671,55.102 468.08,55.547 487.182,80.917 499.686,83.279 			"/>
			<polygon fill="#1D1D1B" points="464.938,55.102 456.071,55.102 454.885,55.995 471.404,77.937 483.905,80.298 			"/>
			<polygon fill="#1D1D1B" points="452.815,56.872 445.575,61.502 455.717,74.974 468.22,77.335 			"/>
		</g>
		<path fill="#1D1D1B" d="M443.331,73.731L518.2,87.872l-34.055-33.847H455.27l-18.748,11.987L443.331,73.731z M455.9,56.179h27.355
			l28.447,28.273L444.459,71.75l-4.658-5.278L455.9,56.179z"/>
	</g>
	<g id="left4">
		<polygon opacity="0.34" fill="#819371" points="437.473,66.242 454.895,55.102 427.65,55.102 		"/>
		<g>
			<rect x="435.224" y="61.798" fill="#1D1D1B" width="8.304" height="0.433"/>
			<polygon fill="#1D1D1B" points="441.419,63.802 441.419,63.37 435.762,63.37 435.762,63.521 436.01,63.802 			"/>
			<rect x="433.698" y="60.272" fill="#1D1D1B" width="12.702" height="0.432"/>
			<rect x="432.441" y="58.747" fill="#1D1D1B" width="15.755" height="0.432"/>
			<rect x="430.87" y="57.175" fill="#1D1D1B" width="20.063" height="0.433"/>
		</g>
		<polygon fill="none" points="438.161,66.242 455.585,55.102 428.34,55.102 		"/>
		<path fill="#1D1D1B" d="M425.954,54.025h33.315l-21.307,13.623L425.954,54.025z M451.9,56.179h-21.175l7.634,8.658L451.9,56.179z"
			/>
	</g>
	<g id="left5">
		<polygon opacity="0.27" fill="#00A256" points="355.621,64.516 447.293,77.384 427.65,55.102 409.789,55.102 		"/>
		<g>
			<polygon fill="#1D1D1B" points="444.684,73.642 440.629,69.042 434.197,75.448 441.799,76.516 			"/>
			<polygon fill="#1D1D1B" points="358.158,64.774 365.761,65.842 369.373,62.246 358.863,64.072 			"/>
			<polygon fill="#1D1D1B" points="438.897,67.078 434.843,62.479 423.791,73.488 424.37,74.069 430.952,74.993 			"/>
			<polygon fill="#1D1D1B" points="433.084,60.482 429.028,55.883 412.452,72.396 420.054,73.463 			"/>
			<polygon fill="#1D1D1B" points="425.595,55.682 425.017,55.102 417.504,55.102 401.887,70.66 402.18,70.954 409.266,71.949 			
				"/>
			<polygon fill="#1D1D1B" points="413.521,55.322 413.301,55.102 410.481,55.102 403.927,56.241 390.767,69.353 398.367,70.419 			
				"/>
			<polygon fill="#1D1D1B" points="384.312,59.649 373.806,61.476 368.971,66.293 376.572,67.359 			"/>
			<polygon fill="#1D1D1B" points="399.374,57.032 388.868,58.857 379.87,67.822 387.472,68.89 			"/>
		</g>
		<polygon fill="none" points="356.313,64.516 447.982,77.384 428.34,55.102 410.481,55.102 		"/>
		<path fill="#1D1D1B" d="M410.389,54.025h18.438l21.891,24.83L349.369,64.629L410.389,54.025z M427.853,56.179h-17.279
			l-47.317,8.224l81.993,11.51L427.853,56.179z"/>
	</g>
	<g id="left6">
		<polygon opacity="0.26" fill="#93C01F" points="409.789,55.102 281.572,55.102 281.572,77.384 		"/>
		<g>
			<polygon fill="#1D1D1B" points="390.531,55.102 389.309,55.102 388.832,58.864 390.083,58.646 			"/>
			<polygon fill="#1D1D1B" points="394.492,55.106 394.454,55.102 393.269,55.102 392.88,58.16 394.132,57.943 			"/>
			<polygon fill="#1D1D1B" points="282.262,74.453 282.262,77.227 282.782,77.293 283.132,77.232 285.944,55.102 284.721,55.102 			
				"/>
			<polygon fill="#1D1D1B" points="289.748,55.102 288.524,55.102 285.771,76.774 287.021,76.557 			"/>
			<polygon fill="#1D1D1B" points="293.689,55.102 292.466,55.102 289.801,76.073 291.052,75.856 			"/>
			<polygon fill="#1D1D1B" points="297.493,55.102 296.27,55.102 293.691,75.397 294.942,75.181 			"/>
			<polygon fill="#1D1D1B" points="301.452,55.102 300.229,55.102 297.739,74.694 298.99,74.477 			"/>
			<polygon fill="#1D1D1B" points="305.255,55.102 304.032,55.102 301.629,74.018 302.88,73.801 			"/>
			<polygon fill="#1D1D1B" points="309.197,55.102 307.974,55.102 305.659,73.317 306.91,73.101 			"/>
			<polygon fill="#1D1D1B" points="313.001,55.102 311.778,55.102 309.548,72.642 310.8,72.425 			"/>
			<polygon fill="#1D1D1B" points="317.016,55.102 315.793,55.102 313.655,71.928 314.906,71.711 			"/>
			<polygon fill="#1D1D1B" points="320.819,55.102 319.596,55.102 317.544,71.252 318.795,71.035 			"/>
			<polygon fill="#1D1D1B" points="324.762,55.102 323.539,55.102 321.576,70.552 322.827,70.334 			"/>
			<polygon fill="#1D1D1B" points="328.565,55.102 327.341,55.102 325.465,69.876 326.715,69.658 			"/>
			<polygon fill="#1D1D1B" points="332.524,55.102 331.3,55.102 329.512,69.173 330.763,68.955 			"/>
			<polygon fill="#1D1D1B" points="336.328,55.102 335.104,55.102 333.403,68.496 334.654,68.279 			"/>
			<polygon fill="#1D1D1B" points="340.269,55.102 339.045,55.102 337.434,67.796 338.684,67.579 			"/>
			<polygon fill="#1D1D1B" points="344.073,55.102 342.85,55.102 341.322,67.12 342.573,66.902 			"/>
			<polygon fill="#1D1D1B" points="347.978,55.102 346.754,55.102 345.315,66.426 346.566,66.209 			"/>
			<polygon fill="#1D1D1B" points="351.78,55.102 350.557,55.102 349.205,65.75 350.456,65.533 			"/>
			<polygon fill="#1D1D1B" points="355.723,55.102 354.5,55.102 353.237,65.05 354.487,64.832 			"/>
			<polygon fill="#1D1D1B" points="359.527,55.102 358.302,55.102 357.125,64.374 358.376,64.156 			"/>
			<polygon fill="#1D1D1B" points="363.486,55.102 362.262,55.102 361.173,63.671 362.424,63.453 			"/>
			<polygon fill="#1D1D1B" points="367.288,55.102 366.065,55.102 365.063,62.994 366.313,62.777 			"/>
			<polygon fill="#1D1D1B" points="371.229,55.102 370.006,55.102 369.094,62.294 370.345,62.076 			"/>
			<polygon fill="#1D1D1B" points="375.034,55.102 373.811,55.102 372.981,61.618 374.231,61.401 			"/>
			<polygon fill="#1D1D1B" points="378.984,55.102 377.761,55.102 377.039,60.795 377.431,60.845 378.274,60.698 			"/>
			<polygon fill="#1D1D1B" points="382.788,55.102 381.564,55.102 380.912,60.24 382.163,60.022 			"/>
			<polygon fill="#1D1D1B" points="386.73,55.102 385.508,55.102 384.975,59.289 385.791,59.393 386.193,59.322 			"/>
		</g>
		<path fill="#1D1D1B" d="M281.185,54.025h129.297l0.184,2.139l-129.48,22.5V54.025z M397.99,56.179H283.339v19.924L397.99,56.179z"
			/>
	</g>
	<g id="left7">
		<polygon opacity="0.47" fill="#4A671E" points="281.572,55.102 281.572,77.384 281.572,99.661 229.764,81.644 		"/>
		<g>
			<polygon fill="#1D1D1B" points="282.262,97.689 282.262,96.386 236.485,78.555 235.042,79.294 			"/>
			<polygon fill="#1D1D1B" points="240.081,76.712 238.638,77.451 282.262,94.446 282.262,93.143 			"/>
			<polygon fill="#1D1D1B" points="244.066,74.671 242.623,75.41 282.262,90.853 282.262,89.549 			"/>
			<polygon fill="#1D1D1B" points="247.662,72.828 246.219,73.567 282.262,87.609 282.262,86.307 			"/>
			<polygon fill="#1D1D1B" points="251.647,70.786 250.205,71.525 282.262,84.014 282.262,82.711 			"/>
			<polygon fill="#1D1D1B" points="255.244,68.943 253.801,69.683 282.262,80.77 282.262,79.469 			"/>
			<polygon fill="#1D1D1B" points="259.229,66.901 257.787,67.641 282.262,77.176 282.262,75.874 			"/>
			<polygon fill="#1D1D1B" points="262.825,65.06 261.383,65.799 282.262,73.933 282.262,72.631 			"/>
			<polygon fill="#1D1D1B" points="266.645,63.103 265.202,63.842 282.262,70.487 282.262,69.186 			"/>
			<polygon fill="#1D1D1B" points="270.241,61.26 268.798,61.999 282.262,67.244 282.262,65.942 			"/>
			<polygon fill="#1D1D1B" points="274.227,59.219 272.784,59.957 282.262,63.649 282.262,62.349 			"/>
			<polygon fill="#1D1D1B" points="277.823,57.376 276.38,58.115 282.262,60.406 282.262,59.105 			"/>
			<polygon fill="#1D1D1B" points="245.133,86.748 276.306,97.59 232.579,80.556 231.136,81.295 			"/>
		</g>
		<path fill="#1D1D1B" d="M283.377,54.065l-0.038,47.109l-55.617-19.342l54.039-27.678L283.377,54.065z M281.185,98.146V56.864
			l-47.995,24.59L281.185,98.146z"/>
	</g>
	<g id="left8">
		<polygon opacity="0.29" fill="#5FAD30" points="281.572,55.102 177.958,108.186 74.344,55.102 		"/>
		<g>
			<polygon fill="#1D1D1B" points="270.812,55.102 264.128,55.102 255.861,68.627 265.589,63.644 			"/>
			<polygon fill="#1D1D1B" points="275.061,55.102 271.779,60.472 282.262,55.102 			"/>
			<polygon fill="#1D1D1B" points="188.997,55.102 187.576,55.102 160.729,99.006 161.811,99.561 			"/>
			<polygon fill="#1D1D1B" points="178.063,55.102 175.888,55.102 151.829,94.446 153.488,95.296 			"/>
			<polygon fill="#1D1D1B" points="167.113,55.102 164.182,55.102 142.915,89.88 145.151,91.025 			"/>
			<polygon fill="#1D1D1B" points="156.182,55.102 152.385,55.102 133.932,85.277 136.828,86.762 			"/>
			<polygon fill="#1D1D1B" points="145.138,55.102 140.818,55.102 125.124,80.765 128.419,82.453 			"/>
			<polygon fill="#1D1D1B" points="134.244,55.102 129.103,55.102 116.204,76.195 120.124,78.203 			"/>
			<polygon fill="#1D1D1B" points="123.335,55.102 117.393,55.102 107.287,71.627 111.816,73.947 			"/>
			<polygon fill="#1D1D1B" points="112.371,55.102 105.7,55.102 98.383,67.065 103.468,69.67 			"/>
			<polygon fill="#1D1D1B" points="101.437,55.102 94.024,55.102 89.493,62.511 95.142,65.404 			"/>
			<polygon fill="#1D1D1B" points="81.139,58.23 86.221,60.834 89.724,55.102 83.052,55.102 			"/>
			<polygon fill="#1D1D1B" points="200.623,55.102 198.444,55.102 169.008,103.248 170.663,104.096 			"/>
			<polygon fill="#1D1D1B" points="209.392,55.102 177.346,107.52 178.646,108.186 180.425,107.274 212.33,55.102 			"/>
			<polygon fill="#1D1D1B" points="224.127,55.102 220.322,55.102 192.076,101.306 197.606,98.472 			"/>
			<polygon fill="#1D1D1B" points="235.693,55.102 231.365,55.102 208.155,93.067 214.451,89.843 			"/>
			<polygon fill="#1D1D1B" points="247.408,55.102 242.258,55.102 224.017,84.941 231.508,81.104 			"/>
			<polygon fill="#1D1D1B" points="259.119,55.102 253.166,55.102 239.899,76.805 248.562,72.367 			"/>
		</g>
		<path fill="#1D1D1B" d="M70.566,54.025h216.16l-108.08,55.371L70.566,54.025z M277.797,56.179H79.496l99.15,50.798L277.797,56.179
			z"/>
	</g>
</g>
<rect id="line" y="54.025" fill="#1D1D1B" width="768.022" height="2.154"/>
<g id="top_1_">
	<g id="left_1_">
		<polygon opacity="0.4" fill="#00A256" points="177.422,45.352 58.893,55.102 130.163,55.102 		"/>
		<g>
			<polygon fill="#1D1D1B" points="95.494,52.806 95.02,52.843 95.883,54.025 96.385,54.025 			"/>
			<polygon fill="#1D1D1B" points="98.661,52.558 98.187,52.595 99.233,54.025 99.734,54.025 			"/>
			<polygon fill="#1D1D1B" points="101.971,52.298 101.497,52.335 102.732,54.025 103.234,54.025 			"/>
			<polygon fill="#1D1D1B" points="105.139,52.049 104.665,52.087 106.082,54.025 106.584,54.025 			"/>
			<polygon fill="#1D1D1B" points="82.519,54.025 83.021,54.025 82.854,53.798 82.38,53.835 			"/>
			<polygon fill="#1D1D1B" points="86.022,53.549 85.548,53.586 85.868,54.025 86.37,54.025 			"/>
			<polygon fill="#1D1D1B" points="89.332,53.29 88.857,53.327 89.368,54.025 89.87,54.025 			"/>
			<polygon fill="#1D1D1B" points="92.5,53.041 92.025,53.078 92.717,54.025 93.22,54.025 			"/>
			<polygon fill="#1D1D1B" points="120.989,50.806 120.515,50.843 122.842,54.025 123.344,54.025 			"/>
			<polygon fill="#1D1D1B" points="124.157,50.557 123.683,50.595 126.191,54.025 126.694,54.025 			"/>
			<polygon fill="#1D1D1B" points="129.648,53.966 130.084,53.876 127.467,50.298 126.992,50.335 			"/>
			<polygon fill="#1D1D1B" points="130.635,50.049 130.16,50.086 132.559,53.365 132.995,53.275 			"/>
			<polygon fill="#1D1D1B" points="108.35,51.797 107.875,51.835 109.478,54.025 109.979,54.025 			"/>
			<polygon fill="#1D1D1B" points="111.518,51.549 111.043,51.586 112.827,54.025 113.329,54.025 			"/>
			<polygon fill="#1D1D1B" points="114.828,51.289 114.353,51.327 116.326,54.025 116.829,54.025 			"/>
			<polygon fill="#1D1D1B" points="117.995,51.041 117.521,51.078 119.676,54.025 120.179,54.025 			"/>
			<polygon fill="#1D1D1B" points="133.816,49.799 133.341,49.837 135.481,52.762 135.918,52.672 			"/>
			<polygon fill="#1D1D1B" points="149.666,48.556 149.192,48.593 150.044,49.758 150.479,49.668 			"/>
			<polygon fill="#1D1D1B" points="152.834,48.308 152.36,48.345 152.955,49.157 153.39,49.067 			"/>
			<polygon fill="#1D1D1B" points="156.144,48.048 155.669,48.085 155.995,48.53 156.431,48.44 			"/>
			<polygon fill="#1D1D1B" points="159.311,47.799 158.837,47.836 158.905,47.93 159.341,47.84 			"/>
			<polygon fill="#1D1D1B" points="137.027,49.548 136.553,49.585 138.432,52.154 138.868,52.063 			"/>
			<polygon fill="#1D1D1B" points="140.194,49.299 139.72,49.336 141.342,51.553 141.778,51.463 			"/>
			<polygon fill="#1D1D1B" points="143.504,49.04 143.03,49.077 144.383,50.926 144.819,50.836 			"/>
			<polygon fill="#1D1D1B" points="146.672,48.791 146.198,48.828 147.293,50.325 147.729,50.235 			"/>
		</g>
		<g>
			<polygon fill="none" points="176.732,45.352 52.457,55.102 129.472,55.102 			"/>
			<path fill="#1D1D1B" d="M129.581,56.179H52.457l-0.084-2.151l124.275-9.75l0.302,2.129L129.581,56.179z M79.96,54.025h49.402
				l30.314-6.254L79.96,54.025z"/>
		</g>
	</g>
	<g id="left2_1_">
		<polygon opacity="0.37" fill="#93C01F" points="258.824,28.561 130.163,55.102 285.529,55.102 		"/>
		<g>
			<polygon fill="#1D1D1B" points="167.219,48.415 165.565,48.756 171.562,54.025 173.603,54.025 			"/>
			<polygon fill="#1D1D1B" points="162.468,49.396 160.513,49.799 165.323,54.025 167.737,54.025 			"/>
			<polygon fill="#1D1D1B" points="157.737,50.371 155.517,50.829 159.154,54.025 161.896,54.025 			"/>
			<polygon fill="#1D1D1B" points="153.111,51.325 150.426,51.879 152.868,54.025 156.183,54.025 			"/>
			<polygon fill="#1D1D1B" points="145.494,52.897 146.778,54.025 150.187,54.025 148.255,52.327 			"/>
			<polygon fill="#1D1D1B" points="140.599,54.025 144.413,54.025 143.578,53.292 140.49,53.929 			"/>
			<polygon fill="#1D1D1B" points="171.869,47.456 170.683,47.701 177.881,54.025 179.346,54.025 			"/>
			<polygon fill="#1D1D1B" points="176.593,46.481 175.695,46.667 184.069,54.025 185.178,54.025 			"/>
			<polygon fill="#1D1D1B" points="181.363,45.498 180.707,45.633 190.257,54.025 191.068,54.025 			"/>
			<polygon fill="#1D1D1B" points="186.392,44.46 185.494,44.645 196.169,54.025 197.278,54.025 			"/>
			<polygon fill="#1D1D1B" points="191.387,43.429 190.201,43.674 201.982,54.025 203.447,54.025 			"/>
			<polygon fill="#1D1D1B" points="196.54,42.367 194.886,42.708 207.767,54.025 209.809,54.025 			"/>
			<polygon fill="#1D1D1B" points="206.612,40.289 204.392,40.747 219.503,54.025 222.246,54.025 			"/>
			<polygon fill="#1D1D1B" points="201.502,41.343 199.546,41.746 213.522,54.025 215.936,54.025 			"/>
			<polygon fill="#1D1D1B" points="226.36,36.215 223.6,36.784 243.22,54.025 246.307,54.025 246.447,53.865 			"/>
			<polygon fill="#1D1D1B" points="221.684,37.18 218.595,37.817 237.042,54.025 240.854,54.025 			"/>
			<polygon fill="#1D1D1B" points="211.759,39.227 208.999,39.796 225.192,54.025 228.601,54.025 			"/>
			<polygon fill="#1D1D1B" points="216.666,38.215 213.577,38.852 230.844,54.025 234.658,54.025 			"/>
			<polygon fill="#1D1D1B" points="245.271,32.313 243.618,32.655 267.94,54.025 269.981,54.025 			"/>
			<polygon fill="#1D1D1B" points="240.52,33.294 238.565,33.697 261.701,54.025 264.114,54.025 			"/>
			<polygon fill="#1D1D1B" points="235.79,34.27 233.569,34.728 255.532,54.025 258.274,54.025 			"/>
			<polygon fill="#1D1D1B" points="231.163,35.224 228.478,35.778 249.246,54.025 252.56,54.025 			"/>
			<polygon fill="#1D1D1B" points="249.921,31.354 248.735,31.599 274.258,54.025 275.724,54.025 			"/>
			<polygon fill="#1D1D1B" points="254.645,30.38 253.748,30.565 280.448,54.025 281.557,54.025 			"/>
		</g>
		<g>
			<polygon fill="none" points="140.025,54.025 282.228,54.025 257.786,29.732 			"/>
			<path fill="#1D1D1B" d="M287.452,56.179H118.918l139.567-28.791L287.452,56.179z M140.025,54.025h142.203l-24.442-24.293
				L140.025,54.025z"/>
		</g>
	</g>
	<g id="left3_1_">
		<polygon opacity="0.32" fill="#3A673A" points="325.338,37.463 254.278,24.041 285.529,55.102 313.646,55.102 331.068,43.962
			"/>
		<g>
			<polygon fill="#1D1D1B" points="324.645,37.463 315.941,35.819 324.675,47.424 329.937,43.461 			"/>
			<polygon fill="#1D1D1B" points="265.684,26.326 255.85,24.468 255.49,24.739 259.059,29.478 284.84,55.102 286.206,55.102
				286.937,54.551 			"/>
			<polygon fill="#1D1D1B" points="300.46,54.658 281.357,29.287 268.855,26.925 290.069,55.102 299.871,55.102 			"/>
			<polygon fill="#1D1D1B" points="313.656,54.208 297.136,32.267 284.633,29.905 303.603,55.102 312.47,55.102 			"/>
			<polygon fill="#1D1D1B" points="312.823,35.23 300.321,32.869 315.724,53.331 322.964,48.703 			"/>
		</g>
		<path fill="#1D1D1B" d="M325.208,36.473L250.34,22.332l34.055,33.847h28.875l18.748-11.987L325.208,36.473z M312.639,54.025
			h-27.355l-28.447-28.274l67.244,12.703l4.659,5.278L312.639,54.025z"/>
	</g>
	<g id="left4_1_">
		<polygon opacity="0.34" fill="#819371" points="331.068,43.962 313.646,55.102 340.889,55.102 		"/>
		<g>
			<rect x="325.012" y="47.974" fill="#1D1D1B" width="8.304" height="0.432"/>
			<polygon fill="#1D1D1B" points="327.122,46.403 327.122,46.835 332.777,46.835 332.777,46.683 332.531,46.403 			"/>
			<rect x="322.14" y="49.5" fill="#1D1D1B" width="12.702" height="0.432"/>
			<rect x="320.344" y="51.026" fill="#1D1D1B" width="15.755" height="0.432"/>
			<rect x="317.606" y="52.597" fill="#1D1D1B" width="20.064" height="0.432"/>
		</g>
		<polygon fill="none" points="330.379,43.962 312.955,55.102 340.2,55.102 		"/>
		<path fill="#1D1D1B" d="M342.586,56.179H309.27l21.307-13.622L342.586,56.179z M316.64,54.025h21.175l-7.633-8.657L316.64,54.025z
			"/>
	</g>
	<g id="left5_1_">
		<polygon opacity="0.27" fill="#00A256" points="412.919,45.689 321.247,32.821 340.889,55.102 358.75,55.102 		"/>
		<g>
			<polygon fill="#1D1D1B" points="326.74,33.688 323.855,36.562 327.911,41.162 334.342,34.756 			"/>
			<polygon fill="#1D1D1B" points="410.382,45.43 402.778,44.362 399.167,47.958 409.676,46.132 			"/>
			<polygon fill="#1D1D1B" points="344.749,36.716 344.171,36.136 337.587,35.211 329.643,43.126 333.698,47.726 			"/>
			<polygon fill="#1D1D1B" points="356.088,37.809 348.486,36.741 335.457,49.721 339.512,54.321 			"/>
			<polygon fill="#1D1D1B" points="366.653,39.544 366.361,39.25 359.274,38.256 342.945,54.523 343.522,55.102 351.037,55.102
				"/>
			<polygon fill="#1D1D1B" points="377.774,40.853 370.173,39.786 355.019,54.882 355.238,55.102 358.059,55.102 364.615,53.962
				"/>
			<polygon fill="#1D1D1B" points="399.568,43.912 391.967,42.845 384.229,50.554 394.733,48.729 			"/>
			<polygon fill="#1D1D1B" points="388.67,42.382 381.069,41.315 369.168,53.171 379.672,51.346 			"/>
		</g>
		<polygon fill="none" points="412.228,45.689 320.557,32.821 340.2,55.102 358.059,55.102 		"/>
		<path fill="#1D1D1B" d="M358.152,56.179h-18.438l-21.89-24.83l101.348,14.226L358.152,56.179z M340.687,54.025h17.28l47.316-8.223
			l-81.992-11.51L340.687,54.025z"/>
	</g>
	<g id="left6_1_">
		<polygon opacity="0.26" fill="#93C01F" points="358.75,55.102 486.969,55.102 486.969,32.821 		"/>
		<g>
			<polygon fill="#1D1D1B" points="379.708,51.34 378.458,51.557 378.008,55.102 379.231,55.102 			"/>
			<polygon fill="#1D1D1B" points="375.659,52.043 374.408,52.261 374.048,55.098 374.078,55.102 375.272,55.102 			"/>
			<polygon fill="#1D1D1B" points="486.278,35.75 486.278,32.978 485.76,32.911 485.408,32.972 482.596,55.102 483.819,55.102
				"/>
			<polygon fill="#1D1D1B" points="482.77,33.431 481.518,33.648 478.793,55.102 480.016,55.102 			"/>
			<polygon fill="#1D1D1B" points="478.738,34.131 477.488,34.348 474.851,55.102 476.073,55.102 			"/>
			<polygon fill="#1D1D1B" points="474.85,34.807 473.599,35.024 471.047,55.102 472.271,55.102 			"/>
			<polygon fill="#1D1D1B" points="470.802,35.51 469.55,35.728 467.089,55.102 468.312,55.102 			"/>
			<polygon fill="#1D1D1B" points="466.91,36.187 465.66,36.404 463.284,55.102 464.508,55.102 			"/>
			<polygon fill="#1D1D1B" points="462.881,36.887 461.63,37.104 459.343,55.102 460.566,55.102 			"/>
			<polygon fill="#1D1D1B" points="458.991,37.563 457.74,37.78 455.539,55.102 456.763,55.102 			"/>
			<polygon fill="#1D1D1B" points="454.885,38.276 453.634,38.494 451.523,55.102 452.746,55.102 			"/>
			<polygon fill="#1D1D1B" points="450.996,38.952 449.745,39.169 447.721,55.102 448.943,55.102 			"/>
			<polygon fill="#1D1D1B" points="446.965,39.652 445.714,39.87 443.779,55.102 445.002,55.102 			"/>
			<polygon fill="#1D1D1B" points="443.075,40.328 441.824,40.545 439.976,55.102 441.198,55.102 			"/>
			<polygon fill="#1D1D1B" points="439.027,41.032 437.777,41.249 436.017,55.102 437.241,55.102 			"/>
			<polygon fill="#1D1D1B" points="435.138,41.708 433.886,41.925 432.213,55.102 433.436,55.102 			"/>
			<polygon fill="#1D1D1B" points="431.106,42.408 429.856,42.625 428.271,55.102 429.495,55.102 			"/>
			<polygon fill="#1D1D1B" points="427.218,43.084 425.967,43.301 424.467,55.102 425.69,55.102 			"/>
			<polygon fill="#1D1D1B" points="423.225,43.778 421.974,43.995 420.563,55.102 421.785,55.102 			"/>
			<polygon fill="#1D1D1B" points="419.335,44.454 418.084,44.671 416.76,55.102 417.983,55.102 			"/>
			<polygon fill="#1D1D1B" points="415.304,45.154 414.053,45.372 412.817,55.102 414.041,55.102 			"/>
			<polygon fill="#1D1D1B" points="411.415,45.83 410.164,46.047 409.014,55.102 410.238,55.102 			"/>
			<polygon fill="#1D1D1B" points="407.368,46.533 406.116,46.75 405.054,55.102 406.278,55.102 			"/>
			<polygon fill="#1D1D1B" points="403.478,47.209 402.227,47.427 401.252,55.102 402.475,55.102 			"/>
			<polygon fill="#1D1D1B" points="399.446,47.91 398.195,48.127 397.311,55.102 398.533,55.102 			"/>
			<polygon fill="#1D1D1B" points="395.56,48.585 394.308,48.803 393.506,55.102 394.729,55.102 			"/>
			<polygon fill="#1D1D1B" points="391.501,49.408 391.11,49.358 390.266,49.505 389.556,55.102 390.778,55.102 			"/>
			<polygon fill="#1D1D1B" points="387.629,49.963 386.377,50.181 385.752,55.102 386.976,55.102 			"/>
			<polygon fill="#1D1D1B" points="383.565,50.915 382.748,50.812 382.347,50.881 381.809,55.102 383.032,55.102 			"/>
		</g>
		<path fill="#1D1D1B" d="M487.355,56.179H358.059l-0.184-2.138l129.48-22.5V56.179z M370.55,54.025H485.2V34.101L370.55,54.025z"/>
	</g>
	<g id="left7_1_">
		<polygon opacity="0.47" fill="#4A671E" points="486.969,55.102 486.969,32.821 486.969,10.543 538.776,28.561 		"/>
		<g>
			<polygon fill="#1D1D1B" points="486.278,12.515 486.278,13.818 532.055,31.649 533.498,30.91 			"/>
			<polygon fill="#1D1D1B" points="486.278,15.759 486.278,17.061 528.459,33.492 529.901,32.752 			"/>
			<polygon fill="#1D1D1B" points="486.278,19.353 486.278,20.655 524.474,35.533 525.916,34.794 			"/>
			<polygon fill="#1D1D1B" points="486.278,22.596 486.278,23.898 520.878,37.376 522.32,36.637 			"/>
			<polygon fill="#1D1D1B" points="486.278,26.191 486.278,27.493 516.892,39.418 518.333,38.679 			"/>
			<polygon fill="#1D1D1B" points="486.278,29.435 486.278,30.736 513.295,41.26 514.737,40.521 			"/>
			<polygon fill="#1D1D1B" points="486.278,33.029 486.278,34.331 509.31,43.302 510.752,42.563 			"/>
			<polygon fill="#1D1D1B" points="486.278,36.272 486.278,37.574 505.714,45.145 507.156,44.405 			"/>
			<polygon fill="#1D1D1B" points="486.278,39.717 486.278,41.018 501.895,47.101 503.337,46.362 			"/>
			<polygon fill="#1D1D1B" points="486.278,42.96 486.278,44.262 498.298,48.943 499.741,48.204 			"/>
			<polygon fill="#1D1D1B" points="486.278,46.554 486.278,47.856 494.313,50.985 495.756,50.246 			"/>
			<polygon fill="#1D1D1B" points="490.717,52.828 492.159,52.088 486.278,49.797 486.278,51.099 			"/>
			<polygon fill="#1D1D1B" points="535.961,29.648 537.404,28.909 523.404,23.456 492.239,12.617 			"/>
		</g>
		<path fill="#1D1D1B" d="M485.163,56.139l0.037-47.11l55.618,19.343l-54.039,27.677L485.163,56.139z M487.355,12.059V53.34
			l47.995-24.59L487.355,12.059z"/>
	</g>
	<g id="left8_1_">
		<polygon opacity="0.29" fill="#5FAD30" points="486.969,55.102 590.582,2.018 694.194,55.102 		"/>
		<g>
			<polygon fill="#1D1D1B" points="512.679,41.576 502.952,46.559 497.729,55.102 504.412,55.102 			"/>
			<polygon fill="#1D1D1B" points="493.479,55.102 496.762,49.73 486.278,55.102 			"/>
			<polygon fill="#1D1D1B" points="607.811,11.197 606.728,10.643 579.544,55.102 580.965,55.102 			"/>
			<polygon fill="#1D1D1B" points="616.712,15.757 615.053,14.908 590.478,55.102 592.653,55.102 			"/>
			<polygon fill="#1D1D1B" points="625.624,20.323 623.391,19.179 601.426,55.102 604.359,55.102 			"/>
			<polygon fill="#1D1D1B" points="634.609,24.927 631.714,23.443 612.359,55.102 616.157,55.102 			"/>
			<polygon fill="#1D1D1B" points="643.417,29.438 640.122,27.751 623.403,55.102 627.723,55.102 			"/>
			<polygon fill="#1D1D1B" points="652.337,34.008 648.418,32 634.298,55.102 639.438,55.102 			"/>
			<polygon fill="#1D1D1B" points="661.254,38.577 656.724,36.256 645.205,55.102 651.148,55.102 			"/>
			<polygon fill="#1D1D1B" points="670.156,43.137 665.073,40.533 656.17,55.102 662.839,55.102 			"/>
			<polygon fill="#1D1D1B" points="679.048,47.693 673.4,44.799 667.105,55.102 674.518,55.102 			"/>
			<polygon fill="#1D1D1B" points="687.401,51.972 682.32,49.369 678.816,55.102 685.487,55.102 			"/>
			<polygon fill="#1D1D1B" points="599.533,6.957 597.877,6.108 567.919,55.102 570.096,55.102 			"/>
			<polygon fill="#1D1D1B" points="591.195,2.686 589.893,2.018 588.113,2.93 556.211,55.102 559.148,55.102 			"/>
			<polygon fill="#1D1D1B" points="576.466,8.897 570.934,11.731 544.413,55.102 548.219,55.102 			"/>
			<polygon fill="#1D1D1B" points="560.384,17.136 554.092,20.359 532.846,55.102 537.175,55.102 			"/>
			<polygon fill="#1D1D1B" points="544.523,25.261 537.033,29.099 521.133,55.102 526.283,55.102 			"/>
			<polygon fill="#1D1D1B" points="528.641,33.398 519.979,37.836 509.422,55.102 515.375,55.102 			"/>
		</g>
		<path fill="#1D1D1B" d="M697.974,56.179h-216.16L589.893,0.808L697.974,56.179z M490.742,54.025h198.302L589.893,3.229
			L490.742,54.025z"/>
	</g>
</g>
</svg>
