<?xml version="1.0" encoding="utf-8"?>
<!-- Generator: Adobe Illustrator 15.1.0, SVG Export Plug-In . SVG Version: 6.00 Build 0)  -->
<!DOCTYPE svg PUBLIC "-//W3C//DTD SVG 1.1//EN" "http://www.w3.org/Graphics/SVG/1.1/DTD/svg11.dtd">
<svg version="1.1" id="Layer_1" xmlns="http://www.w3.org/2000/svg" xmlns:xlink="http://www.w3.org/1999/xlink" x="0px" y="0px"
	 width="130.967px" height="94.267px" viewBox="0 0 130.967 94.267" enable-background="new 0 0 130.967 94.267"
	 xml:space="preserve">
<g id="BG_w_x26_m">
	<path fill="#F5F5F5" d="M37.291,0.708C37.183,0.923,37.086,1.246,37,1.675L31.72,28.663c-0.434,2.231-0.775,4.433-1.033,6.602
		c-0.259,2.168-0.492,4.112-0.708,5.829H29.72c-0.128-0.987-0.257-1.943-0.387-2.866c-0.125-0.923-0.254-1.869-0.383-2.835
		c-0.129-0.967-0.292-1.996-0.483-3.092c-0.196-1.094-0.42-2.306-0.68-3.637L22.121,2.769h-2.513c-0.388,0-0.633,0.108-0.741,0.323
		c-0.104,0.215-0.205,0.515-0.288,0.902l-4.958,24.669c-0.387,2.104-0.732,4.154-1.033,6.149c-0.299,1.998-0.537,4.112-0.708,6.346
		h-0.259c-0.129-0.988-0.259-1.944-0.383-2.867c-0.129-0.922-0.271-1.879-0.421-2.866c-0.15-0.988-0.313-2.029-0.484-3.125
		c-0.17-1.094-0.387-2.306-0.646-3.637L3.764,0.385H0.931c-0.474,0-0.742,0.119-0.805,0.354C0.06,0.977,0.072,1.267,0.16,1.61
		c1.117,5.625,2.229,11.014,3.345,16.166c0.43,2.191,0.893,4.435,1.388,6.731c0.492,2.298,0.966,4.52,1.417,6.666
		c0.449,2.147,0.878,4.166,1.286,6.053c0.409,1.892,0.763,3.523,1.063,4.896c0.259,1.205,0.538,2.148,0.837,2.835
		c0.301,0.686,0.667,1.031,1.096,1.031c0.729,0,1.296-0.012,1.709-0.033c0.404-0.023,0.825-0.054,1.253-0.096l5.025-24.026
		L20.383,9.66c0.13,0.902,0.28,1.956,0.451,3.158c0.171,1.202,0.354,2.394,0.545,3.575c0.196,1.181,0.367,2.265,0.517,3.252
		c0.15,0.987,0.287,1.739,0.417,2.254l4.833,20.867c0.212,0.99,0.47,1.784,0.77,2.383c0.301,0.602,0.688,0.902,1.163,0.902
		c0.684,0,1.192-0.01,1.513-0.031c0.32-0.023,0.741-0.075,1.253-0.161l9.082-45.474h-2.898C37.645,0.385,37.395,0.494,37.291,0.708z
		"/>
	<path fill="#F5F5F5" d="M60.927,44.957c0.062-0.344,0.095-1.266,0.095-2.771H48.335V22.48h10.562c0.388,0,0.613-0.204,0.675-0.615
		c0.066-0.406,0.1-1.298,0.1-2.67H48.335V3.67h12.108c0.346,0,0.537-0.181,0.579-0.546c0.042-0.367,0.067-1.279,0.067-2.739H45.694
		c-0.217,0-0.367,0.055-0.45,0.163c-0.088,0.106-0.176,0.204-0.259,0.29c-0.087,0.171-0.128,0.321-0.128,0.45v44.185h15.394
		C60.635,45.472,60.864,45.301,60.927,44.957z"/>
	<path fill="#F5F5F5" d="M78.284,44.859c1.461-0.406,2.803-1.168,4.023-2.285c1.225-1.117,2.256-2.673,3.092-4.671
		c0.838-1.996,1.256-4.604,1.256-7.826c0-1.973-0.277-3.563-0.836-4.765c-0.557-1.202-1.232-2.147-2.031-2.833
		c-0.793-0.688-1.635-1.161-2.508-1.419c-0.883-0.258-1.668-0.409-2.352-0.45c0.643-0.085,1.33-0.323,2.059-0.708
		c0.734-0.388,1.416-0.988,2.059-1.805c0.65-0.816,1.174-1.868,1.582-3.156c0.41-1.287,0.609-2.876,0.609-4.766
		c0-2.063-0.332-3.725-0.996-4.991c-0.666-1.267-1.512-2.254-2.547-2.964c-1.031-0.708-2.189-1.189-3.473-1.448
		c-1.291-0.258-2.537-0.387-3.742-0.387h-6.436c-0.688,0-1.125,0.098-1.322,0.29c-0.19,0.194-0.286,0.463-0.286,0.806v43.991h7.853
		C75.487,45.472,76.821,45.27,78.284,44.859z M69.976,3.542h4.57c0.857,0,1.699,0.098,2.514,0.292
		c0.816,0.191,1.545,0.569,2.186,1.127c0.646,0.558,1.176,1.31,1.58,2.254c0.408,0.944,0.613,2.148,0.613,3.606
		c0,3.179-0.643,5.399-1.934,6.666c-1.283,1.267-2.85,1.899-4.699,1.899h-4.83V3.542z M69.976,22.48h4.313
		c1.158,0,2.258,0.063,3.283,0.191c1.033,0.129,1.912,0.463,2.645,0.999c0.73,0.537,1.305,1.331,1.738,2.383
		c0.43,1.054,0.643,2.501,0.643,4.347c0,2.277-0.234,4.177-0.709,5.702c-0.471,1.523-1.092,2.737-1.867,3.637
		c-0.775,0.902-1.654,1.546-2.641,1.933c-0.988,0.386-2.016,0.579-3.092,0.579h-4.313V22.48z"/>
	<path fill="#F5F5F5" d="M125.368,38.193c0.383-0.943,0.709-1.908,0.963-2.897c0.258-0.987,0.453-1.933,0.578-2.833
		c0.131-0.902,0.217-1.75,0.258-2.546c0.043-0.793,0.068-1.469,0.068-2.027c0-1.804-0.135-3.36-0.389-4.67
		c-0.258-1.31-0.57-2.438-0.934-3.381c-0.367-0.945-0.754-1.719-1.16-2.318c-0.41-0.602-0.764-1.073-1.061-1.417l4.633,0.063
		c1.158,0,1.893-0.138,2.193-0.418c0.299-0.279,0.449-0.652,0.449-1.127c0-0.686-0.041-1.158-0.125-1.417
		c-0.863-0.085-1.75-0.129-2.676-0.129s-1.924,0-2.994,0c-0.857,0-1.893,0.013-3.094,0.034c-1.201,0.021-2.428,0.14-3.67,0.354
		c1.5,1.158,2.775,2.91,3.834,5.25c1.049,2.339,1.574,5.226,1.574,8.662c0,0.772-0.063,1.89-0.191,3.35
		c-0.129,1.46-0.428,2.962-0.9,4.508c-1.766-2.063-3.541-4.304-5.348-6.731c-1.801-2.425-3.443-4.831-4.928-7.214
		c-1.48-2.381-2.693-4.625-3.639-6.729c-0.941-2.104-1.418-3.843-1.418-5.218c0-1.331,0.205-2.394,0.613-3.187
		c0.404-0.796,0.953-1.419,1.641-1.869c0.688-0.45,1.473-0.752,2.354-0.902c0.877-0.15,1.793-0.225,2.734-0.225
		c3.268,0,5.971,0.731,8.115,2.189c0.219-0.258,0.408-0.621,0.584-1.096c0.172-0.471,0.258-0.943,0.258-1.417
		c0-0.6-0.85-1.223-2.549-1.869C119.452,0.323,117.206,0,114.419,0c-1.549,0-2.979,0.161-4.283,0.483
		c-1.318,0.321-2.449,0.837-3.416,1.546c-0.967,0.708-1.717,1.631-2.254,2.768c-0.537,1.14-0.805,2.502-0.805,4.089
		c0,1.804,0.492,3.877,1.479,6.216c0.986,2.342,2.254,4.8,3.799,7.377c-0.986,0.558-1.92,1.233-2.803,2.027
		c-0.879,0.795-1.658,1.697-2.35,2.706c-0.684,1.008-1.232,2.125-1.643,3.347c-0.408,1.225-0.611,2.504-0.611,3.833
		c0,1.417,0.162,2.833,0.488,4.251c0.316,1.417,0.92,2.673,1.799,3.769c0.883,1.094,2.084,1.985,3.607,2.671
		c1.525,0.688,3.488,1.031,5.893,1.031c2.449,0,4.486-0.43,6.115-1.288c1.633-0.858,2.967-1.954,4-3.285
		c1.242,1.375,2.326,2.471,3.25,3.285c0.926,0.814,1.537,1.223,1.836,1.223c0.254,0,0.504-0.096,0.738-0.29
		c0.242-0.194,0.467-0.429,0.68-0.708c0.213-0.279,0.396-0.579,0.547-0.902c0.148-0.321,0.248-0.633,0.291-0.933
		c-0.602-0.343-1.375-0.957-2.316-1.835C127.511,40.501,126.481,39.439,125.368,38.193z M117.894,41.641
		c-1.246,0.752-2.834,1.125-4.768,1.125c-1.586,0-2.898-0.246-3.928-0.739s-1.838-1.138-2.418-1.931
		c-0.578-0.796-0.986-1.675-1.219-2.642c-0.242-0.967-0.359-1.921-0.359-2.866c0-2.319,0.525-4.262,1.578-5.829
		c1.057-1.566,2.33-2.781,3.836-3.639c1.627,2.491,3.35,4.916,5.152,7.277c1.799,2.364,3.541,4.51,5.217,6.443
		C120.169,39.955,119.14,40.889,117.894,41.641z"/>
	<path fill="#F5F5F5" d="M34.424,49.47c-0.087,0.193-0.175,0.397-0.259,0.612L27.404,71.98c-0.088,0.344-0.25,0.926-0.483,1.741
		c-0.238,0.816-0.483,1.654-0.742,2.512c-0.3,1.031-0.621,2.125-0.967,3.285c-0.345-1.201-0.666-2.32-0.966-3.35
		c-0.259-0.857-0.513-1.717-0.771-2.576c-0.258-0.859-0.429-1.459-0.517-1.805l-7.02-22.607h-2.383c-0.258,0-0.462,0.055-0.612,0.16
		c-0.15,0.109-0.225,0.356-0.225,0.742v44.186c0.815,0,1.458,0,1.933,0c0.471,0,0.825-0.033,1.063-0.096
		c0.233-0.064,0.375-0.152,0.416-0.26s0.066-0.27,0.066-0.482l-0.066-18.229c0-0.773-0.029-1.975-0.095-3.606
		c-0.063-1.631-0.129-3.35-0.192-5.154c-0.066-1.805-0.128-3.511-0.195-5.121c-0.063-1.609-0.116-2.802-0.159-3.574
		c0.387,1.29,0.846,2.813,1.383,4.572c0.538,1.763,1.054,3.447,1.546,5.059c0.496,1.607,0.913,3.006,1.258,4.185
		c0.342,1.182,0.554,1.858,0.642,2.03l3.609,11.527H25.6c0.342,0,0.58-0.191,0.708-0.578l3.733-10.949l4.833-16.102l-0.579,18.16
		l-0.129,18.617c0.901,0,1.6,0,2.092,0c0.496,0,0.85-0.033,1.063-0.096c0.216-0.064,0.345-0.152,0.387-0.26
		c0.041-0.107,0.067-0.27,0.067-0.482V49.18h-2.708C34.725,49.18,34.508,49.277,34.424,49.47z"/>
	<path fill="#F5F5F5" d="M45.307,49.34c-0.088,0.109-0.171,0.207-0.258,0.29c-0.083,0.173-0.129,0.323-0.129,0.452v44.186h15.395
		c0.388,0,0.613-0.172,0.675-0.518c0.067-0.342,0.1-1.264,0.1-2.77H48.397V71.273h10.566c0.384,0,0.609-0.205,0.675-0.613
		c0.063-0.406,0.096-1.298,0.096-2.674H48.397V52.465H60.51c0.341,0,0.534-0.181,0.579-0.548c0.042-0.364,0.062-1.277,0.062-2.737
		H45.756C45.544,49.18,45.395,49.234,45.307,49.34z"/>
	<path fill="#F5F5F5" d="M83.95,53.656c-1.029-1.566-2.33-2.704-3.896-3.414c-1.566-0.708-3.383-1.063-5.441-1.063h-6.441
		c-0.646,0-1.074,0.098-1.286,0.29c-0.218,0.193-0.326,0.462-0.326,0.806v43.992h7.795c1.801,0,3.488-0.344,5.059-1.031
		c1.566-0.686,2.916-1.953,4.059-3.801c1.133-1.846,2.023-4.389,2.666-7.633c0.65-3.24,0.967-7.395,0.967-12.461
		c0-3.737-0.268-6.893-0.805-9.469C85.763,57.296,84.978,55.226,83.95,53.656z M82.503,80.516c-0.494,2.855-1.148,5.057-1.965,6.602
		c-0.816,1.547-1.764,2.555-2.834,3.025c-1.074,0.475-2.166,0.709-3.287,0.709h-4.313V52.465h4.441c1.459,0,2.738,0.29,3.834,0.869
		c1.092,0.581,2.008,1.524,2.732,2.835c0.734,1.311,1.268,3.017,1.617,5.121c0.342,2.104,0.516,4.701,0.516,7.792
		C83.245,73.85,82.995,77.66,82.503,80.516z"/>
	<path fill="#F5F5F5" d="M93.577,49.407c-0.236,0.105-0.375,0.289-0.416,0.546c-0.045,0.258-0.066,0.602-0.066,1.031v43.283
		c0.9,0,1.588,0,2.059,0c0.475,0,0.828-0.033,1.066-0.096c0.232-0.064,0.375-0.152,0.416-0.26c0.043-0.107,0.066-0.27,0.066-0.482
		V49.18c-0.861,0-1.531,0.013-2.033,0.033C94.179,49.234,93.812,49.299,93.577,49.407z"/>
	<path fill="#F5F5F5" d="M115.636,49.115c-0.385-0.129-0.9-0.191-1.541-0.191c-0.775,0-1.186,0.191-1.225,0.579l-12.176,44.698
		c0.475,0.086,0.904,0.131,1.287,0.131c0.389,0,0.688,0,0.904,0c0.643,0,1.07-0.045,1.291-0.131
		c0.209-0.084,0.359-0.299,0.451-0.643l2.959-11.723h13.398l3.215,12.432c0.477,0.041,0.893,0.064,1.258,0.064
		c0.369,0,0.66,0,0.873,0c0.688,0,1.129-0.064,1.32-0.195c0.191-0.129,0.246-0.363,0.158-0.707L115.636,49.115z M108.429,78.551
		l3.09-11.916c0.342-1.246,0.658-2.502,0.963-3.769c0.305-1.266,0.578-2.456,0.838-3.574c0.258-1.114,0.463-2.125,0.613-3.027
		c0.152-0.901,0.266-1.651,0.354-2.254c0.041,0.603,0.15,1.353,0.324,2.254c0.166,0.902,0.371,1.913,0.607,3.027
		c0.234,1.118,0.504,2.309,0.809,3.574c0.301,1.267,0.621,2.522,0.967,3.769l3.092,11.916H108.429z"/>
</g>
</svg>
