<svg xmlns="http://www.w3.org/2000/svg" width="733" height="528" viewBox="0 0 733 528">
  <path fill="#F5F5F5" d="M208.659 3.962c-.605 1.203-1.147 3.01-1.628 5.41l-29.544 151.01a507.03 507.03 0 0 0-5.78 36.94c-1.45 12.131-2.753 23.009-3.962 32.616h-1.45a1478.756 1478.756 0 0 0-2.165-16.036c-.699-5.165-1.42-10.458-2.143-15.863-.721-5.411-1.633-11.169-2.702-17.301a1316.13 1316.13 0 0 0-3.805-20.35L123.776 15.493h-14.061c-2.171 0-3.542.604-4.146 1.807-.582 1.203-1.147 2.882-1.612 5.047L76.215 160.382a1086.102 1086.102 0 0 0-5.78 34.406c-1.673 11.18-3.005 23.008-3.961 35.508h-1.45c-.721-5.528-1.449-10.877-2.143-16.042a1380.913 1380.913 0 0 0-2.355-16.036c-.84-5.529-1.752-11.353-2.709-17.486-.95-6.121-2.165-12.903-3.614-20.35L21.06 2.154H5.21c-2.652 0-4.151.666-4.504 1.981-.37 1.332-.302 2.954.19 4.874 6.25 31.474 12.472 61.628 18.717 90.455a2074.77 2074.77 0 0 0 7.766 37.663c2.753 12.858 5.406 25.291 7.93 37.299a5122.74 5122.74 0 0 0 7.195 33.87c2.288 10.586 4.27 19.712 5.948 27.394 1.449 6.743 3.01 12.02 4.683 15.863 1.684 3.839 3.732 5.77 6.133 5.77 4.079 0 7.251-.068 9.562-.185 2.26-.13 4.616-.303 7.011-.538l28.117-134.435 10.094-68.113c.728 5.047 1.567 10.944 2.524 17.67a1063.46 1063.46 0 0 0 3.05 20.004 1348.17 1348.17 0 0 1 2.892 18.196c.84 5.523 1.606 9.73 2.334 12.612l27.042 116.76c1.186 5.54 2.63 9.982 4.309 13.334 1.684 3.368 3.85 5.047 6.507 5.047 3.827 0 6.67-.056 8.466-.174 1.79-.128 4.146-.42 7.011-.9L229.004 2.153h-16.216c-2.148 0-3.547.61-4.13 1.808zm132.253 247.591c.347-1.925.532-7.084.532-15.505h-70.99V125.785h59.1c2.17 0 3.43-1.141 3.776-3.441.37-2.272.56-7.263.56-14.94h-63.435V20.535h67.749c1.936 0 3.005-1.013 3.24-3.055.235-2.053.375-7.156.375-15.326h-86.142c-1.214 0-2.053.308-2.518.912a29.367 29.367 0 0 1-1.449 1.623c-.487.957-.716 1.796-.716 2.518V254.44h86.136c2.148-.006 3.43-.963 3.782-2.888zm97.12-.548c8.175-2.272 15.684-6.536 22.51-12.786 6.855-6.25 12.623-14.956 17.301-26.136 4.69-11.168 7.028-25.761 7.028-43.79 0-11.04-1.55-19.936-4.678-26.662-3.116-6.725-6.893-12.013-11.364-15.852-4.437-3.85-9.148-6.496-14.033-7.94-4.941-1.443-9.333-2.288-13.16-2.517 3.597-.476 7.441-1.808 11.52-3.962 4.107-2.171 7.923-5.528 11.521-10.1 3.637-4.566 6.57-10.452 8.852-17.659 2.294-7.201 3.408-16.092 3.408-26.668 0-11.543-1.858-20.843-5.573-27.926-3.727-7.09-8.46-12.612-14.252-16.585-5.769-3.962-12.248-6.653-19.433-8.102-7.223-1.444-14.195-2.166-20.938-2.166H380.73c-3.85 0-6.295.549-7.397 1.623-1.063 1.085-1.6 2.59-1.6 4.51v246.148h43.94c6.71 0 14.174-1.13 22.36-3.43zM391.545 19.819h25.571c4.795 0 9.507.548 14.067 1.634 4.566 1.069 8.645 3.184 12.232 6.306 3.614 3.122 6.58 7.33 8.84 12.612 2.283 5.282 3.43 12.019 3.43 20.177 0 17.788-3.597 30.21-10.821 37.3-7.18 7.089-15.947 10.625-26.293 10.625h-27.026V19.819zm0 105.966h24.133c6.48 0 12.635.353 18.37 1.069 5.78.722 10.698 2.59 14.8 5.59 4.084 3.004 7.302 7.447 9.725 13.333 2.406 5.898 3.597 13.995 3.597 24.324 0 12.74-1.309 23.372-3.967 31.905-2.635 8.522-6.11 15.315-10.446 20.35-4.337 5.047-9.255 8.65-14.778 10.816-5.528 2.16-11.28 3.24-17.3 3.24h-24.134V125.785zm309.942 87.92c2.143-5.276 3.967-10.675 5.388-16.21 1.444-5.522 2.535-10.815 3.234-15.85.733-5.048 1.214-9.793 1.444-14.247.24-4.437.38-8.22.38-11.342 0-10.094-.755-18.8-2.176-26.13-1.444-7.33-3.19-13.642-5.226-18.918-2.054-5.288-4.22-9.619-6.491-12.97-2.294-3.37-4.275-6.005-5.937-7.93l25.924.353c6.48 0 10.592-.772 12.27-2.339 1.673-1.56 2.513-3.648 2.513-6.306 0-3.838-.23-6.48-.7-7.928a152.292 152.292 0 0 0-14.973-.722h-16.753c-4.795 0-10.592.072-17.312.19-6.72.117-13.586.783-20.535 1.98 8.393 6.48 15.527 16.283 21.453 29.377 5.87 13.087 8.807 29.241 8.807 48.467 0 4.32-.353 10.576-1.069 18.745-.722 8.17-2.395 16.574-5.036 25.224-9.881-11.543-19.813-24.083-29.924-37.663-10.077-13.569-19.265-27.031-27.574-40.365-8.281-13.323-15.069-25.879-20.362-37.652-5.265-11.772-7.934-21.503-7.934-29.197 0-7.447 1.147-13.395 3.43-17.832 2.26-4.454 5.332-7.94 9.182-10.458 3.85-2.518 8.242-4.208 13.171-5.047 4.908-.84 10.033-1.26 15.298-1.26 18.286 0 33.41 4.091 45.407 12.25 1.226-1.444 2.283-3.475 3.268-6.133.962-2.636 1.443-5.277 1.443-7.929 0-3.357-4.756-6.843-14.262-10.458C668.385 1.807 655.817 0 640.222 0c-8.667 0-16.668.9-23.965 2.703-7.375 1.796-13.703 4.683-19.114 8.65-5.41 3.962-9.607 9.126-12.612 15.488-3.005 6.379-4.504 14-4.504 22.88 0 10.094 2.753 21.693 8.275 34.781 5.518 13.105 12.613 26.858 21.257 41.277-5.517 3.123-10.743 6.9-15.684 11.342-4.918 4.449-9.277 9.496-13.149 15.142-3.827 5.64-6.893 11.89-9.193 18.727-2.283 6.855-3.419 14.011-3.419 21.448 0 7.928.907 15.852 2.73 23.786 1.769 7.929 5.149 14.956 10.067 21.089 4.94 6.121 11.66 11.107 20.183 14.945 8.533 3.85 19.516 5.77 32.973 5.77 13.704 0 25.101-2.407 34.216-7.208 9.138-4.8 16.602-10.933 22.382-18.38 6.95 7.693 13.015 13.826 18.185 18.38 5.182 4.555 8.6 6.843 10.273 6.843 1.422 0 2.82-.537 4.13-1.622 1.354-1.086 2.613-2.4 3.805-3.962a27.45 27.45 0 0 0 3.06-5.047c.828-1.796 1.388-3.542 1.629-5.22-3.369-1.92-7.694-5.355-12.96-10.268-5.31-4.924-11.073-10.866-17.3-17.838zM659.667 233c-6.972 4.208-15.858 6.295-26.68 6.295-8.874 0-16.215-1.377-21.978-4.135-5.764-2.759-10.285-6.368-13.53-10.805a41.428 41.428 0 0 1-6.82-14.783c-1.355-5.41-2.01-10.749-2.01-16.037 0-12.975 2.938-23.847 8.83-32.615 5.914-8.763 13.037-15.561 21.464-20.362 9.104 13.938 18.745 27.507 28.828 40.718 10.066 13.227 19.813 25.235 29.19 36.051-4.565 6.239-10.323 11.465-17.295 15.673zm-467.05 43.806a72.633 72.633 0 0 0-1.45 3.425l-37.83 122.528c-.493 1.925-1.399 5.182-2.703 9.742a1552.309 1552.309 0 0 1-4.152 14.056 2837.965 2837.965 0 0 1-5.41 18.38c-1.93-6.72-3.727-12.98-5.405-18.744-1.45-4.795-2.87-9.607-4.315-14.414-1.443-4.806-2.4-8.164-2.892-10.1L89.18 275.183H75.846c-1.444 0-2.585.307-3.424.895-.84.61-1.26 1.992-1.26 4.152v247.239h10.816c2.636 0 4.617-.185 5.948-.537 1.304-.358 2.099-.85 2.328-1.455.23-.604.37-1.51.37-2.697l-.37-101.999c0-4.325-.162-11.05-.531-20.177-.353-9.126-.722-18.745-1.075-28.839-.37-10.1-.716-19.645-1.09-28.654-.353-9.003-.65-15.678-.89-19.998a5435.47 5435.47 0 0 0 7.738 25.582c3.01 9.865 5.897 19.288 8.65 28.308 2.776 8.991 5.11 16.82 7.04 23.416 1.913 6.614 3.1 10.397 3.592 11.36l20.194 64.498h9.36c1.914 0 3.246-1.07 3.962-3.235l20.888-61.264 27.043-90.097-3.24 101.613-.722 104.17h11.706c2.775 0 4.756-.185 5.948-.538 1.208-.358 1.93-.85 2.165-1.455.23-.598.375-1.51.375-2.697V275.183h-15.152c-1.914 0-3.128.543-3.598 1.622zm60.895-.727c-.493.61-.957 1.158-1.444 1.623-.464.968-.722 1.807-.722 2.529V527.47h86.142c2.17 0 3.43-.962 3.777-2.898.375-1.914.56-7.073.56-15.5h-71.023v-110.27h59.12c2.15 0 3.408-1.147 3.778-3.43.352-2.271.537-7.262.537-14.962h-63.435v-86.846h67.777c1.908 0 2.988-1.013 3.24-3.067.235-2.036.347-7.145.347-15.314h-86.142c-1.186 0-2.02.302-2.512.895zm216.223 24.15c-5.757-8.763-13.037-15.13-21.8-19.103-8.762-3.961-18.929-5.948-30.444-5.948h-36.04c-3.615 0-6.01.549-7.196 1.623-1.22 1.08-1.824 2.585-1.824 4.51v246.153h43.616c10.078 0 19.517-1.924 28.308-5.768 8.762-3.839 16.316-10.928 22.711-21.269 6.34-10.329 11.32-24.558 14.918-42.71 3.637-18.129 5.41-41.378 5.41-69.724 0-20.91-1.499-38.57-4.504-52.983-3.01-14.414-7.402-25.996-13.155-34.781zM461.64 450.52c-2.764 15.975-6.424 28.296-10.995 36.94-4.566 8.657-9.87 14.297-15.857 16.927-6.01 2.658-12.12 3.967-18.393 3.967h-24.133v-214.79h24.85c8.163 0 15.32 1.622 21.452 4.862 6.11 3.251 11.236 8.528 15.287 15.863 4.107 7.336 7.095 16.882 9.048 28.654 1.914 11.773 2.887 26.304 2.887 43.6.006 26.679-1.393 47.997-4.146 63.978zm61.964-174.068c-1.32.587-2.099 1.617-2.328 3.055-.252 1.444-.37 3.368-.37 5.769v242.186h11.522c2.657 0 4.633-.184 5.964-.537 1.298-.358 2.099-.85 2.328-1.455.24-.598.37-1.51.37-2.697v-247.59c-4.818 0-8.567.072-11.376.184-2.742.118-4.795.482-6.11 1.086zm123.429-1.634c-2.154-.722-5.036-1.069-8.623-1.069-4.336 0-6.636 1.069-6.854 3.24l-68.13 250.104c2.658.481 5.058.733 7.202.733h5.058c3.598 0 5.987-.252 7.223-.733 1.17-.47 2.01-1.673 2.524-3.598L601.99 457.9h74.967l17.99 69.562c2.669.23 4.996.359 7.039.359h4.884c3.85 0 6.318-.359 7.386-1.092 1.07-.721 1.377-2.03.884-3.956L647.032 274.82zm-40.326 164.707l17.29-66.675c1.913-6.972 3.681-14 5.388-21.09 1.707-7.083 3.234-13.742 4.689-19.997 1.444-6.234 2.59-11.89 3.43-16.938.85-5.041 1.488-9.238 1.98-12.612.23 3.374.84 7.57 1.814 12.612.929 5.047 2.076 10.704 3.396 16.938 1.31 6.255 2.82 12.92 4.527 19.998a581.594 581.594 0 0 0 5.41 21.089l17.302 66.675h-65.226z"/>
</svg>
